<svg width="19" height="18" viewBox="0 0 19 18" fill="none" xmlns="http://www.w3.org/2000/svg">
<path d="M0.539062 1V13C0.539063 13.2652 0.644419 13.5196 0.831956 13.7071C1.01949 13.8946 1.27385 14 1.53906 14H6.53906L9.53906 18L12.5391 14H17.5391C17.8043 14 18.0586 13.8946 18.2462 13.7071C18.4337 13.5196 18.5391 13.2652 18.5391 13V1C18.5391 0.734784 18.4337 0.48043 18.2462 0.292893C18.0586 0.105357 17.8043 0 17.5391 0H1.53906C1.27385 0 1.01949 0.105357 0.831956 0.292893C0.644419 0.48043 0.539063 0.734784 0.539062 1ZM5.53906 4H13.5391C13.8043 4 14.0586 4.10536 14.2462 4.29289C14.4337 4.48043 14.5391 4.73478 14.5391 5C14.5391 5.26522 14.4337 5.51957 14.2462 5.70711C14.0586 5.89464 13.8043 6 13.5391 6H5.53906C5.27385 6 5.01949 5.89464 4.83196 5.70711C4.64442 5.51957 4.53906 5.26522 4.53906 5C4.53906 4.73478 4.64442 4.48043 4.83196 4.29289C5.01949 4.10536 5.27385 4 5.53906 4ZM5.53906 9H9.53906C9.80428 9 10.0586 9.10536 10.2462 9.29289C10.4337 9.48043 10.5391 9.73478 10.5391 10C10.5391 10.2652 10.4337 10.5196 10.2462 10.7071C10.0586 10.8946 9.80428 11 9.53906 11H5.53906C5.27385 11 5.01949 10.8946 4.83196 10.7071C4.64442 10.5196 4.53906 10.2652 4.53906 10C4.53906 9.73478 4.64442 9.48043 4.83196 9.29289C5.01949 9.10536 5.27385 9 5.53906 9Z" fill="#003E52"/>
</svg>
