<svg width="19" height="18" viewBox="0 0 19 18" fill="none" xmlns="http://www.w3.org/2000/svg">
<path d="M3.8795 16.4547L2.3 5.4H16.7L15.1205 16.4547C15.0592 16.8836 14.8452 17.276 14.5179 17.5599C14.1905 17.8438 13.7718 18 13.3385 18H5.6615C5.22822 18 4.80947 17.8438 4.48212 17.5599C4.15478 17.276 3.94081 16.8836 3.8795 16.4547ZM17.6 1.8H13.1V0.9C13.1 0.661305 13.0052 0.432387 12.8364 0.263604C12.6676 0.0948211 12.4387 0 12.2 0H6.8C6.56131 0 6.33239 0.0948211 6.1636 0.263604C5.99482 0.432387 5.9 0.661305 5.9 0.9V1.8H1.4C1.16131 1.8 0.932387 1.89482 0.763604 2.0636C0.594821 2.23239 0.5 2.46131 0.5 2.7C0.5 2.93869 0.594821 3.16761 0.763604 3.3364C0.932387 3.50518 1.16131 3.6 1.4 3.6H17.6C17.8387 3.6 18.0676 3.50518 18.2364 3.3364C18.4052 3.16761 18.5 2.93869 18.5 2.7C18.5 2.46131 18.4052 2.23239 18.2364 2.0636C18.0676 1.89482 17.8387 1.8 17.6 1.8Z" fill="#003E52"/>
</svg>
