<svg width="18" height="20" viewBox="0 0 18 20" fill="none" xmlns="http://www.w3.org/2000/svg">
<path d="M5 7V4C5 2.93913 5.42143 1.92172 6.17157 1.17157C6.92172 0.421427 7.93913 0 9 0C10.0609 0 11.0783 0.421427 11.8284 1.17157C12.5786 1.92172 13 2.93913 13 4V7C13 8.06087 12.5786 9.07828 11.8284 9.82843C11.0783 10.5786 10.0609 11 9 11C7.93913 11 6.92172 10.5786 6.17157 9.82843C5.42143 9.07828 5 8.06087 5 7ZM18 7C18 6.73478 17.8946 6.48043 17.7071 6.29289C17.5196 6.10536 17.2652 6 17 6C16.7348 6 16.4804 6.10536 16.2929 6.29289C16.1054 6.48043 16 6.73478 16 7C16 8.85652 15.2625 10.637 13.9497 11.9497C12.637 13.2625 10.8565 14 9 14C7.14348 14 5.36301 13.2625 4.05025 11.9497C2.7375 10.637 2 8.85652 2 7C2 6.73478 1.89464 6.48043 1.70711 6.29289C1.51957 6.10536 1.26522 6 1 6C0.734784 6 0.48043 6.10536 0.292893 6.29289C0.105357 6.48043 0 6.73478 0 7C0.0032181 9.21255 0.820347 11.3466 2.29568 12.9954C3.77101 14.6443 5.80142 15.6928 8 15.941V18H5C4.73478 18 4.48043 18.1054 4.29289 18.2929C4.10536 18.4804 4 18.7348 4 19C4 19.2652 4.10536 19.5196 4.29289 19.7071C4.48043 19.8946 4.73478 20 5 20H13C13.2652 20 13.5196 19.8946 13.7071 19.7071C13.8946 19.5196 14 19.2652 14 19C14 18.7348 13.8946 18.4804 13.7071 18.2929C13.5196 18.1054 13.2652 18 13 18H10V15.941C12.1986 15.6928 14.229 14.6443 15.7043 12.9954C17.1797 11.3466 17.9968 9.21255 18 7Z" fill="#003E52"/>
</svg>
