<svg width="14" height="13" viewBox="0 0 14 13" fill="none" xmlns="http://www.w3.org/2000/svg">
<path d="M11.55 6.5H13.5V11.7C13.5 12.0448 13.363 12.3754 13.1192 12.6192C12.8754 12.863 12.5448 13 12.2 13H11.55V6.5ZM10.25 1.3V13H1.8C1.45522 13 1.12456 12.863 0.880761 12.6192C0.636964 12.3754 0.5 12.0448 0.5 11.7V1.3C0.5 0.955218 0.636964 0.624558 0.880761 0.380761C1.12456 0.136964 1.45522 0 1.8 0H8.95C9.29478 0 9.62544 0.136964 9.86924 0.380761C10.113 0.624558 10.25 0.955218 10.25 1.3ZM5.7 9.1H2.45V10.4H5.7V9.1ZM8.3 5.85H2.45V7.15H8.3V5.85ZM8.3 2.6H2.45V3.9H8.3V2.6Z" fill="#003E52"/>
</svg>
