<svg width="13" height="11" viewBox="0 0 13 11" fill="none" xmlns="http://www.w3.org/2000/svg">
<path d="M11.7 0.299988H1.3C0.955218 0.299988 0.624558 0.436952 0.380761 0.680749C0.136964 0.924546 0 1.25521 0 1.59999V9.39999C0 9.74477 0.136964 10.0754 0.380761 10.3192C0.624558 10.563 0.955218 10.7 1.3 10.7H11.7C12.0448 10.7 12.3754 10.563 12.6192 10.3192C12.863 10.0754 13 9.74477 13 9.39999V1.59999C13 1.25521 12.863 0.924546 12.6192 0.680749C12.3754 0.436952 12.0448 0.299988 11.7 0.299988ZM3.9 8.74999H1.3V7.44999H3.9V8.74999ZM11.7 5.49999H1.3V2.89999H11.7V5.49999Z" fill="#FF5A5A"/>
</svg>
