<svg width="16" height="17" viewBox="0 0 16 17" fill="none" xmlns="http://www.w3.org/2000/svg">
<path fill-rule="evenodd" clip-rule="evenodd" d="M14.3478 4.46487C14.3322 3.85473 14.0829 3.27389 13.6513 2.84232C13.2197 2.41075 12.6389 2.16142 12.0287 2.14583C11.1443 2.13775 10.2963 1.79188 9.65851 1.17903C9.21365 0.743748 8.616 0.5 7.9936 0.5C7.37121 0.5 6.77356 0.743748 6.32869 1.17903C5.6922 1.7923 4.84549 2.13928 3.96167 2.14903C3.35153 2.16461 2.77069 2.41394 2.33912 2.84552C1.90755 3.27709 1.65822 3.85793 1.64263 4.46807C1.6346 5.351 1.28996 6.1976 0.679028 6.83509C0.243748 7.27996 0 7.8776 0 8.5C0 9.1224 0.243748 9.72004 0.679028 10.1649C1.29188 10.8027 1.63775 11.6507 1.64583 12.5351C1.66142 13.1453 1.91075 13.7261 2.34232 14.1577C2.77389 14.5893 3.35473 14.8386 3.96487 14.8542C4.84935 14.8622 5.69729 15.2081 6.33509 15.821C6.77996 16.2563 7.3776 16.5 8 16.5C8.6224 16.5 9.22004 16.2563 9.66491 15.821C10.3027 15.2081 11.1507 14.8622 12.0351 14.8542C12.6453 14.8386 13.2261 14.5893 13.6577 14.1577C14.0893 13.7261 14.3386 13.1453 14.3542 12.5351C14.3622 11.6507 14.7081 10.8027 15.321 10.1649C15.7563 9.72004 16 9.1224 16 8.5C16 7.8776 15.7563 7.27996 15.321 6.83509C14.7058 6.19829 14.3576 5.35024 14.3478 4.46487ZM7.44139 11.8257L12.2394 7.42755C12.3957 7.28418 12.4887 7.08459 12.4978 6.87268C12.507 6.66078 12.4316 6.45392 12.2882 6.29761C12.1448 6.14131 11.9452 6.04835 11.7333 6.03921C11.5214 6.03006 11.3146 6.10546 11.1583 6.24883L6.9248 10.1296L5.06717 8.272C4.9934 8.19562 4.90516 8.1347 4.8076 8.09279C4.71004 8.05088 4.60511 8.02882 4.49893 8.0279C4.39275 8.02697 4.28745 8.04721 4.18917 8.08742C4.09089 8.12762 4.00161 8.187 3.92652 8.26209C3.85144 8.33717 3.79206 8.42645 3.75186 8.52473C3.71165 8.62301 3.69142 8.7283 3.69234 8.83449C3.69326 8.94066 3.71532 9.0456 3.75723 9.14316C3.79914 9.24072 3.86006 9.32896 3.93644 9.40273L6.33544 11.8017C6.48117 11.9475 6.67754 12.0313 6.8836 12.0358C7.08965 12.0403 7.28948 11.965 7.44139 11.8257Z" fill="#10BAC4"/>
</svg>
