<svg width="18" height="20" viewBox="0 0 18 20" fill="none" xmlns="http://www.w3.org/2000/svg">
<path d="M9.00018 9.09091C9.89918 9.09091 10.778 8.82432 11.5255 8.32486C12.273 7.8254 12.8556 7.1155 13.1996 6.28493C13.5437 5.45435 13.6337 4.54041 13.4583 3.65868C13.2829 2.77695 12.85 1.96703 12.2143 1.33133C11.5786 0.695642 10.7687 0.262729 9.88695 0.0873417C9.00522 -0.0880457 8.09128 0.00196947 7.26071 0.346004C6.43013 0.690039 5.72023 1.27264 5.22077 2.02014C4.72131 2.76763 4.45472 3.64645 4.45472 4.54546C4.45617 5.75054 4.93552 6.90586 5.78765 7.75798C6.63977 8.61011 7.79509 9.08947 9.00018 9.09091ZM9.00018 1.81818C9.53958 1.81818 10.0669 1.97814 10.5154 2.27781C10.9639 2.57749 11.3134 3.00343 11.5198 3.50177C11.7263 4.00012 11.7803 4.54848 11.675 5.07752C11.5698 5.60656 11.3101 6.09251 10.9286 6.47393C10.5472 6.85535 10.0613 7.11509 9.53224 7.22032C9.0032 7.32556 8.45484 7.27155 7.95649 7.06513C7.45815 6.85871 7.03221 6.50915 6.73253 6.06065C6.43286 5.61215 6.2729 5.08486 6.2729 4.54546C6.2729 3.82214 6.56024 3.12845 7.0717 2.61698C7.58317 2.10552 8.27686 1.81818 9.00018 1.81818ZM0.818359 19.0909V15.4545C0.819803 14.2495 1.29916 13.0941 2.15129 12.242C3.00341 11.3899 4.15873 10.9105 5.36381 10.9091H12.6365C13.8416 10.9105 14.9969 11.3899 15.8491 12.242C16.7012 13.0941 17.1805 14.2495 17.182 15.4545V19.0909C17.182 19.332 17.0862 19.5632 16.9157 19.7337C16.7452 19.9042 16.514 20 16.2729 20C16.0318 20 15.8006 19.9042 15.6301 19.7337C15.4596 19.5632 15.3638 19.332 15.3638 19.0909V15.4545C15.3638 14.7312 15.0765 14.0375 14.565 13.5261C14.0535 13.0146 13.3599 12.7273 12.6365 12.7273H5.36381C4.6405 12.7273 3.9468 13.0146 3.43534 13.5261C2.92388 14.0375 2.63654 14.7312 2.63654 15.4545V19.0909C2.63654 19.332 2.54076 19.5632 2.37027 19.7337C2.19979 19.9042 1.96856 20 1.72745 20C1.48634 20 1.25511 19.9042 1.08463 19.7337C0.914138 19.5632 0.818359 19.332 0.818359 19.0909Z" fill="#003E52"/>
</svg>
