<svg width="15" height="16" viewBox="0 0 15 16" fill="none" xmlns="http://www.w3.org/2000/svg">
<path d="M14.5389 12.3129C14.7141 12.4887 14.8455 12.7034 14.9223 12.9394C14.9992 13.1755 15.0194 13.4263 14.9812 13.6717C14.9431 13.917 14.8478 14.1499 14.7029 14.3515C14.558 14.5531 14.3677 14.7177 14.1474 14.8321C12.8882 15.5051 11.4211 15.6771 10.0405 15.3136C6.37604 14.3911 1.10891 9.12396 0.186431 5.45954C-0.177068 4.07886 -0.00507087 2.61179 0.66792 1.35263C0.78229 1.13229 0.946943 0.941974 1.14855 0.797103C1.35015 0.652231 1.58304 0.556874 1.82835 0.518752C2.07366 0.480629 2.3245 0.500813 2.56057 0.57767C2.79663 0.654527 3.01127 0.785895 3.18711 0.961138L4.75083 2.5241C4.97633 2.74734 5.12892 3.03365 5.1885 3.34532C5.24807 3.65699 5.21184 3.97939 5.08457 4.27006C4.9453 4.59619 4.74755 4.89408 4.50108 5.14904C2.71312 6.937 8.56374 12.7876 10.351 10.9989C10.606 10.7516 10.9041 10.553 11.2307 10.4132C11.5213 10.2857 11.8438 10.2494 12.1555 10.3089C12.4672 10.3685 12.7535 10.5212 12.9766 10.7469L14.5389 12.3129Z" fill="#003E52"/>
</svg>
