<svg width="19" height="18" viewBox="0 0 19 18" fill="none" xmlns="http://www.w3.org/2000/svg">
<path d="M18.75 0.9C18.75 0.661305 18.6552 0.432387 18.4864 0.263604C18.3176 0.0948211 18.0887 0 17.85 0H1.65C1.41131 0 1.18239 0.0948211 1.0136 0.263604C0.844821 0.432387 0.75 0.661305 0.75 0.9V13.5C0.75 13.7387 0.844821 13.9676 1.0136 14.1364C1.18239 14.3052 1.41131 14.4 1.65 14.4H6.6L9.03 17.64C9.11383 17.7518 9.22254 17.8425 9.34751 17.905C9.47248 17.9675 9.61028 18 9.75 18C9.88972 18 10.0275 17.9675 10.1525 17.905C10.2775 17.8425 10.3862 17.7518 10.47 17.64L12.9 14.4H17.85C18.0887 14.4 18.3176 14.3052 18.4864 14.1364C18.6552 13.9676 18.75 13.7387 18.75 13.5V0.9ZM16.95 12.6H12.45C12.3103 12.6 12.1725 12.6325 12.0475 12.695C11.9225 12.7575 11.8138 12.8482 11.73 12.96L9.75 15.5997L7.77 12.96C7.68617 12.8482 7.57746 12.7575 7.45249 12.695C7.32752 12.6325 7.18972 12.6 7.05 12.6H2.55V1.8H16.95V12.6ZM5.25 5.4C5.25 5.1613 5.34482 4.93239 5.5136 4.7636C5.68239 4.59482 5.9113 4.5 6.15 4.5H13.35C13.5887 4.5 13.8176 4.59482 13.9864 4.7636C14.1552 4.93239 14.25 5.1613 14.25 5.4C14.25 5.63869 14.1552 5.86761 13.9864 6.0364C13.8176 6.20518 13.5887 6.3 13.35 6.3H6.15C5.9113 6.3 5.68239 6.20518 5.5136 6.0364C5.34482 5.86761 5.25 5.63869 5.25 5.4ZM5.25 9.9C5.25 9.6613 5.34482 9.43239 5.5136 9.2636C5.68239 9.09482 5.9113 9 6.15 9H9.75C9.98869 9 10.2176 9.09482 10.3864 9.2636C10.5552 9.43239 10.65 9.6613 10.65 9.9C10.65 10.1387 10.5552 10.3676 10.3864 10.5364C10.2176 10.7052 9.98869 10.8 9.75 10.8H6.15C5.9113 10.8 5.68239 10.7052 5.5136 10.5364C5.34482 10.3676 5.25 10.1387 5.25 9.9Z" fill="#003E52"/>
</svg>
