<svg width="19" height="18" viewBox="0 0 19 18" fill="none" xmlns="http://www.w3.org/2000/svg">
<path d="M8.15087 15.2234C9.45826 15.2246 10.7436 14.8868 11.8815 14.2429L15.038 17.3994C15.4225 17.784 15.944 18 16.4878 18C17.0317 18 17.5532 17.784 17.9377 17.3994C18.3223 17.0149 18.5383 16.4934 18.5383 15.9495C18.5383 15.4057 18.3223 14.8842 17.9377 14.4997L14.7812 11.3432C15.6839 9.74059 15.9755 7.86531 15.6021 6.06431C15.2287 4.26331 14.2156 2.65853 12.7503 1.5469C11.2849 0.435282 9.46647 -0.107922 7.63148 0.0178081C5.79648 0.143538 4.06914 0.929693 2.76909 2.2308C1.70466 3.29519 0.979762 4.65133 0.68608 6.12772C0.392397 7.6041 0.543118 9.13442 1.11918 10.5251C1.69524 11.9159 2.67078 13.1045 3.92241 13.9408C5.17404 14.7771 6.64556 15.2235 8.15087 15.2234ZM4.10862 3.57032C5.04376 2.6356 6.27407 2.05403 7.58992 1.9247C8.90577 1.79536 10.2258 2.12626 11.325 2.86102C12.4242 3.59578 13.2347 4.68893 13.6184 5.95425C14.002 7.21956 13.935 8.57875 13.4289 9.80024C12.9228 11.0217 12.0088 12.03 10.8427 12.6531C9.6766 13.2763 8.33048 13.4759 7.0337 13.2179C5.73693 12.9599 4.56973 12.2602 3.73096 11.2381C2.89219 10.2161 2.43375 8.93477 2.43374 7.61258C2.43144 6.86147 2.57831 6.11739 2.86582 5.42349C3.15334 4.72959 3.57577 4.09969 4.10862 3.57032Z" fill="#003E52"/>
</svg>
