<svg width="19" height="18" viewBox="0 0 19 18" fill="none" xmlns="http://www.w3.org/2000/svg">
<path d="M0.539062 17.1V1.80023C0.539062 1.56154 0.633882 1.33263 0.802663 1.16385C0.971443 0.995065 1.20036 0.900245 1.43905 0.900245H9.53893C9.77763 0.900245 10.0065 0.995065 10.1753 1.16385C10.3441 1.33263 10.4389 1.56154 10.4389 1.80023C10.4389 2.03892 10.3441 2.26784 10.1753 2.43662C10.0065 2.6054 9.77763 2.70022 9.53893 2.70022H2.33904V16.2H15.8388V9.00013C15.8388 8.76144 15.9337 8.53252 16.1024 8.36374C16.2712 8.19496 16.5001 8.10014 16.7388 8.10014C16.9775 8.10014 17.2064 8.19496 17.3752 8.36374C17.544 8.53252 17.6388 8.76144 17.6388 9.00013V17.1C17.6388 17.3387 17.544 17.5676 17.3752 17.7364C17.2064 17.9052 16.9775 18 16.7388 18H1.43905C1.20036 18 0.971443 17.9052 0.802663 17.7364C0.633882 17.5676 0.539063 17.3387 0.539062 17.1ZM17.1483 0.263954C17.0647 0.180277 16.9655 0.113895 16.8562 0.0686034C16.747 0.0233122 16.6299 0 16.5116 0C16.3933 0 16.2762 0.0233122 16.1669 0.0686034C16.0577 0.113895 15.9584 0.180277 15.8748 0.263954L9.91153 6.22727V8.62753H12.3118L18.2751 2.66422C18.3588 2.58064 18.4252 2.48138 18.4705 2.37212C18.5157 2.26286 18.5391 2.14575 18.5391 2.02748C18.5391 1.90921 18.5157 1.79209 18.4705 1.68284C18.4252 1.57358 18.3588 1.47432 18.2751 1.39074L17.1483 0.263954Z" fill="#003E52"/>
</svg>
