<svg width="19" height="9" viewBox="0 0 19 9" fill="none" xmlns="http://www.w3.org/2000/svg">
<path d="M18.5 4.09091C18.4987 5.17549 18.0673 6.21527 17.3004 6.98218C16.5335 7.7491 15.4937 8.18052 14.4091 8.18182H12.7727C12.5557 8.18182 12.3476 8.09562 12.1942 7.94218C12.0407 7.78874 11.9545 7.58063 11.9545 7.36364C11.9545 7.14664 12.0407 6.93853 12.1942 6.78509C12.3476 6.63166 12.5557 6.54545 12.7727 6.54545H14.4091C15.0601 6.54545 15.6844 6.28685 16.1447 5.82654C16.605 5.36622 16.8636 4.7419 16.8636 4.09091C16.8636 3.43992 16.605 2.8156 16.1447 2.35528C15.6844 1.89497 15.0601 1.63636 14.4091 1.63636H12.7727C12.5557 1.63636 12.3476 1.55016 12.1942 1.39672C12.0407 1.24328 11.9545 1.03518 11.9545 0.818182C11.9545 0.601187 12.0407 0.393079 12.1942 0.23964C12.3476 0.0862012 12.5557 0 12.7727 0H14.4091C15.4937 0.00129916 16.5335 0.432722 17.3004 1.19963C18.0673 1.96655 18.4987 3.00633 18.5 4.09091ZM4.59091 8.18182H6.22727C6.44427 8.18182 6.65238 8.09562 6.80581 7.94218C6.95925 7.78874 7.04545 7.58063 7.04545 7.36364C7.04545 7.14664 6.95925 6.93853 6.80581 6.78509C6.65238 6.63166 6.44427 6.54545 6.22727 6.54545H4.59091C3.93992 6.54545 3.3156 6.28685 2.85528 5.82654C2.39497 5.36622 2.13636 4.7419 2.13636 4.09091C2.13636 3.43992 2.39497 2.8156 2.85528 2.35528C3.3156 1.89497 3.93992 1.63636 4.59091 1.63636H6.22727C6.44427 1.63636 6.65238 1.55016 6.80581 1.39672C6.95925 1.24328 7.04545 1.03518 7.04545 0.818182C7.04545 0.601187 6.95925 0.393079 6.80581 0.23964C6.65238 0.0862012 6.44427 0 6.22727 0H4.59091C3.50593 0 2.46539 0.431005 1.6982 1.1982C0.931005 1.96539 0.5 3.00593 0.5 4.09091C0.5 5.17589 0.931005 6.21642 1.6982 6.98362C2.46539 7.75081 3.50593 8.18182 4.59091 8.18182ZM5.40909 4.09091C5.40909 4.3079 5.49529 4.51601 5.64873 4.66945C5.80217 4.82289 6.01028 4.90909 6.22727 4.90909H12.7727C12.9897 4.90909 13.1978 4.82289 13.3513 4.66945C13.5047 4.51601 13.5909 4.3079 13.5909 4.09091C13.5909 3.87391 13.5047 3.66581 13.3513 3.51237C13.1978 3.35893 12.9897 3.27273 12.7727 3.27273H6.22727C6.01028 3.27273 5.80217 3.35893 5.64873 3.51237C5.49529 3.66581 5.40909 3.87391 5.40909 4.09091Z" fill="#003E52"/>
</svg>
