<svg width="16" height="14" viewBox="0 0 16 14" fill="none" xmlns="http://www.w3.org/2000/svg">
<path d="M13.8182 0.454102H2.18182C1.60316 0.454102 1.04821 0.683971 0.63904 1.09314C0.229869 1.50231 0 2.05727 0 2.63592V11.3632C0 11.9418 0.229869 12.4968 0.63904 12.906C1.04821 13.3151 1.60316 13.545 2.18182 13.545H13.8182C14.3968 13.545 14.9518 13.3151 15.361 12.906C15.7701 12.4968 16 11.9418 16 11.3632V2.63592C16 2.05727 15.7701 1.50231 15.361 1.09314C14.9518 0.683971 14.3968 0.454102 13.8182 0.454102ZM14.5455 11.3632C14.5455 11.5561 14.4688 11.7411 14.3324 11.8775C14.1961 12.0138 14.0111 12.0905 13.8182 12.0905H2.18182C1.98893 12.0905 1.80395 12.0138 1.66756 11.8775C1.53117 11.7411 1.45455 11.5561 1.45455 11.3632V7.72683H14.5455V11.3632ZM14.5455 6.27228H1.45455V4.81774H14.5455V6.27228ZM14.5455 3.36319H1.45455V2.63592C1.45455 2.44304 1.53117 2.25805 1.66756 2.12166C1.80395 1.98527 1.98893 1.90865 2.18182 1.90865H13.8182C14.0111 1.90865 14.1961 1.98527 14.3324 2.12166C14.4688 2.25805 14.5455 2.44304 14.5455 2.63592V3.36319ZM2.90909 9.90865C2.90909 9.71576 2.98571 9.53078 3.1221 9.39439C3.25849 9.258 3.44348 9.18137 3.63636 9.18137H5.81818C6.01107 9.18137 6.19605 9.258 6.33244 9.39439C6.46883 9.53078 6.54545 9.71576 6.54545 9.90865C6.54545 10.1015 6.46883 10.2865 6.33244 10.4229C6.19605 10.5593 6.01107 10.6359 5.81818 10.6359H3.63636C3.44348 10.6359 3.25849 10.5593 3.1221 10.4229C2.98571 10.2865 2.90909 10.1015 2.90909 9.90865Z" fill="#FF5A5A"/>
</svg>
