<svg width="16" height="16" viewBox="0 0 16 16" fill="none" xmlns="http://www.w3.org/2000/svg">
<path d="M0 0.8V15.2C0 15.4122 0.0842854 15.6157 0.234315 15.7657C0.384344 15.9157 0.587827 16 0.8 16H15.2C15.4122 16 15.6157 15.9157 15.7657 15.7657C15.9157 15.6157 16 15.4122 16 15.2V0.8C16 0.587827 15.9157 0.384344 15.7657 0.234315C15.6157 0.0842854 15.4122 0 15.2 0H0.8C0.587827 0 0.384344 0.0842854 0.234315 0.234315C0.0842854 0.384344 0 0.587827 0 0.8ZM3.4048 14.4C3.92068 13.6593 4.60795 13.0544 5.40805 12.6366C6.20816 12.2188 7.09739 12.0006 8 12.0006C8.90261 12.0006 9.79184 12.2188 10.5919 12.6366C11.3921 13.0544 12.0793 13.6593 12.5952 14.4H3.4048ZM1.6 1.6H14.4V14.3496C13.8045 13.1624 12.8906 12.1643 11.7603 11.4668C10.6301 10.7692 9.32814 10.3998 8 10.3998C6.67186 10.3998 5.36989 10.7692 4.23966 11.4668C3.10943 12.1643 2.19548 13.1624 1.6 14.3496V1.6ZM8 9.6C8.6329 9.6 9.25159 9.41232 9.77782 9.0607C10.3041 8.70908 10.7142 8.20931 10.9564 7.62459C11.1986 7.03986 11.262 6.39645 11.1385 5.77571C11.015 5.15497 10.7103 4.58479 10.2627 4.13726C9.81521 3.68973 9.24503 3.38496 8.62429 3.26149C8.00355 3.13801 7.36014 3.20139 6.77541 3.44359C6.19069 3.68579 5.69092 4.09594 5.3393 4.62218C4.98768 5.14841 4.8 5.7671 4.8 6.4C4.8 7.24869 5.13714 8.06263 5.73726 8.66274C6.33737 9.26286 7.15131 9.6 8 9.6ZM8 4.8C8.31645 4.8 8.62579 4.89384 8.88891 5.06965C9.15203 5.24546 9.35711 5.49535 9.47821 5.78771C9.59931 6.08007 9.63099 6.40177 9.56926 6.71214C9.50752 7.02251 9.35513 7.30761 9.13137 7.53137C8.90761 7.75513 8.62251 7.90752 8.31214 7.96926C8.00177 8.03099 7.68007 7.99931 7.38771 7.87821C7.09535 7.75711 6.84546 7.55203 6.66965 7.28891C6.49384 7.02579 6.4 6.71645 6.4 6.4C6.4 5.97565 6.56857 5.56869 6.86863 5.26863C7.16869 4.96857 7.57565 4.8 8 4.8Z" fill="#FF5A5A"/>
</svg>
