<svg width="10" height="18" viewBox="0 0 10 18" fill="none" xmlns="http://www.w3.org/2000/svg">
<path d="M1.72718 12.2727C1.72718 12.0557 1.64098 11.8476 1.48754 11.6942C1.33411 11.5407 1.126 11.4545 0.909002 11.4545C0.692007 11.4545 0.483899 11.5407 0.33046 11.6942C0.177022 11.8476 0.0908203 12.0557 0.0908203 12.2727C0.0921195 13.3573 0.523542 14.3971 1.29045 15.164C2.05737 15.9309 3.09715 16.3623 4.18173 16.3636V17.1818C4.18173 17.3988 4.26793 17.6069 4.42137 17.7604C4.57481 17.9138 4.78292 18 4.99991 18C5.21691 18 5.42501 17.9138 5.57845 17.7604C5.73189 17.6069 5.81809 17.3988 5.81809 17.1818V16.3636C6.90307 16.3636 7.94361 15.9326 8.7108 15.1654C9.478 14.3982 9.909 13.3577 9.909 12.2727C9.909 11.1878 9.478 10.1472 8.7108 9.38002C7.94361 8.61282 6.90307 8.18182 5.81809 8.18182V3.27273C6.46908 3.27273 7.0934 3.53133 7.55372 3.99165C8.01404 4.45196 8.27264 5.07629 8.27264 5.72727C8.27264 5.94427 8.35884 6.15238 8.51228 6.30581C8.66572 6.45925 8.87382 6.54545 9.09082 6.54545C9.30782 6.54545 9.51592 6.45925 9.66936 6.30581C9.8228 6.15238 9.909 5.94427 9.909 5.72727C9.9077 4.64269 9.47628 3.60291 8.70937 2.836C7.94246 2.06909 6.90267 1.63766 5.81809 1.63636V0.818182C5.81809 0.601186 5.73189 0.393079 5.57845 0.23964C5.42501 0.086201 5.21691 0 4.99991 0C4.78292 0 4.57481 0.086201 4.42137 0.23964C4.26793 0.393079 4.18173 0.601186 4.18173 0.818182V1.63636C3.09675 1.63636 2.05621 2.06737 1.28902 2.83456C0.521826 3.60176 0.0908203 4.6423 0.0908203 5.72727C0.0908203 6.81225 0.521826 7.85279 1.28902 8.61998C2.05621 9.38718 3.09675 9.81818 4.18173 9.81818V14.7273C3.53074 14.7273 2.90642 14.4687 2.4461 14.0084C1.98579 13.548 1.72718 12.9237 1.72718 12.2727ZM5.81809 9.81818C6.46908 9.81818 7.0934 10.0768 7.55372 10.5371C8.01404 10.9974 8.27264 11.6217 8.27264 12.2727C8.27264 12.9237 8.01404 13.548 7.55372 14.0084C7.0934 14.4687 6.46908 14.7273 5.81809 14.7273V9.81818ZM1.72718 5.72727C1.72718 5.07629 1.98579 4.45196 2.4461 3.99165C2.90642 3.53133 3.53074 3.27273 4.18173 3.27273V8.18182C3.53074 8.18182 2.90642 7.92322 2.4461 7.4629C1.98579 7.00258 1.72718 6.37826 1.72718 5.72727Z" fill="#FF5A5A"/>
</svg>
