<svg width="26" height="26" viewBox="0 0 26 26" fill="none" xmlns="http://www.w3.org/2000/svg">
<path d="M5.5 3C5.5 3.49445 5.35338 3.9778 5.07867 4.38892C4.80397 4.80005 4.41352 5.12048 3.95671 5.3097C3.49989 5.49892 2.99723 5.54843 2.51228 5.45196C2.02732 5.3555 1.58187 5.1174 1.23223 4.76777C0.882603 4.41814 0.644501 3.97268 0.548038 3.48773C0.451575 3.00277 0.501083 2.50011 0.690302 2.04329C0.879521 1.58648 1.19995 1.19603 1.61108 0.921326C2.0222 0.646622 2.50555 0.5 3 0.5C3.66304 0.5 4.29893 0.763392 4.76777 1.23223C5.23661 1.70107 5.5 2.33696 5.5 3ZM13 0.5C12.5055 0.5 12.0222 0.646622 11.6111 0.921326C11.2 1.19603 10.8795 1.58648 10.6903 2.04329C10.5011 2.50011 10.4516 3.00277 10.548 3.48773C10.6445 3.97268 10.8826 4.41814 11.2322 4.76777C11.5819 5.1174 12.0273 5.3555 12.5123 5.45196C12.9972 5.54843 13.4999 5.49892 13.9567 5.3097C14.4135 5.12048 14.804 4.80005 15.0787 4.38892C15.3534 3.9778 15.5 3.49445 15.5 3C15.5 2.33696 15.2366 1.70107 14.7678 1.23223C14.2989 0.763392 13.663 0.5 13 0.5ZM23 0.5C22.5055 0.5 22.0222 0.646622 21.6111 0.921326C21.1999 1.19603 20.8795 1.58648 20.6903 2.04329C20.5011 2.50011 20.4516 3.00277 20.548 3.48773C20.6445 3.97268 20.8826 4.41814 21.2322 4.76777C21.5819 5.1174 22.0273 5.3555 22.5123 5.45196C22.9972 5.54843 23.4999 5.49892 23.9567 5.3097C24.4135 5.12048 24.804 4.80005 25.0787 4.38892C25.3534 3.9778 25.5 3.49445 25.5 3C25.5 2.33696 25.2366 1.70107 24.7678 1.23223C24.2989 0.763392 23.663 0.5 23 0.5ZM3 10.5C2.50555 10.5 2.0222 10.6466 1.61108 10.9213C1.19995 11.196 0.879521 11.5865 0.690302 12.0433C0.501083 12.5001 0.451575 13.0028 0.548038 13.4877C0.644501 13.9727 0.882603 14.4181 1.23223 14.7678C1.58187 15.1174 2.02732 15.3555 2.51228 15.452C2.99723 15.5484 3.49989 15.4989 3.95671 15.3097C4.41352 15.1205 4.80397 14.8 5.07867 14.3889C5.35338 13.9778 5.5 13.4945 5.5 13C5.5 12.337 5.23661 11.7011 4.76777 11.2322C4.29893 10.7634 3.66304 10.5 3 10.5ZM13 10.5C12.5055 10.5 12.0222 10.6466 11.6111 10.9213C11.2 11.196 10.8795 11.5865 10.6903 12.0433C10.5011 12.5001 10.4516 13.0028 10.548 13.4877C10.6445 13.9727 10.8826 14.4181 11.2322 14.7678C11.5819 15.1174 12.0273 15.3555 12.5123 15.452C12.9972 15.5484 13.4999 15.4989 13.9567 15.3097C14.4135 15.1205 14.804 14.8 15.0787 14.3889C15.3534 13.9778 15.5 13.4945 15.5 13C15.5 12.337 15.2366 11.7011 14.7678 11.2322C14.2989 10.7634 13.663 10.5 13 10.5ZM23 10.5C22.5055 10.5 22.0222 10.6466 21.6111 10.9213C21.1999 11.196 20.8795 11.5865 20.6903 12.0433C20.5011 12.5001 20.4516 13.0028 20.548 13.4877C20.6445 13.9727 20.8826 14.4181 21.2322 14.7678C21.5819 15.1174 22.0273 15.3555 22.5123 15.452C22.9972 15.5484 23.4999 15.4989 23.9567 15.3097C24.4135 15.1205 24.804 14.8 25.0787 14.3889C25.3534 13.9778 25.5 13.4945 25.5 13C25.5 12.337 25.2366 11.7011 24.7678 11.2322C24.2989 10.7634 23.663 10.5 23 10.5ZM13 20.5C12.5055 20.5 12.0222 20.6466 11.6111 20.9213C11.2 21.196 10.8795 21.5865 10.6903 22.0433C10.5011 22.5001 10.4516 23.0028 10.548 23.4877C10.6445 23.9727 10.8826 24.4181 11.2322 24.7678C11.5819 25.1174 12.0273 25.3555 12.5123 25.452C12.9972 25.5484 13.4999 25.4989 13.9567 25.3097C14.4135 25.1205 14.804 24.8 15.0787 24.3889C15.3534 23.9778 15.5 23.4945 15.5 23C15.5 22.337 15.2366 21.7011 14.7678 21.2322C14.2989 20.7634 13.663 20.5 13 20.5Z" fill="#FF5A5A"/>
</svg>
