<svg width="19" height="18" viewBox="0 0 19 18" fill="none" xmlns="http://www.w3.org/2000/svg">
<path d="M18.5 0.9V17.1C18.5 17.3387 18.4052 17.5676 18.2364 17.7364C18.0676 17.9052 17.8387 18 17.6 18H12.92V11.0295H15.26L15.611 8.3133H12.92V6.5781C12.92 5.7915 13.1378 5.256 14.27 5.256H15.71V2.826C15.0138 2.75207 14.314 2.71632 13.6139 2.7189C13.1374 2.6834 12.6589 2.75267 12.2121 2.92185C11.7652 3.09103 11.3608 3.35601 11.0273 3.69817C10.6938 4.04034 10.4393 4.45139 10.2816 4.90243C10.124 5.35348 10.067 5.83358 10.1147 6.309V8.3133H7.7684V11.0295H10.1147V18H1.4C1.16131 18 0.932387 17.9052 0.763604 17.7364C0.594821 17.5676 0.5 17.3387 0.5 17.1V0.9C0.5 0.661305 0.594821 0.432387 0.763604 0.263604C0.932387 0.0948211 1.16131 0 1.4 0H17.6C17.8387 0 18.0676 0.0948211 18.2364 0.263604C18.4052 0.432387 18.5 0.661305 18.5 0.9Z" fill="#003E52"/>
</svg>
