<svg width="34" height="34" viewBox="0 0 34 34" fill="none" xmlns="http://www.w3.org/2000/svg">
<path d="M28.5455 24.3985C29.2953 23.4703 29.7067 22.3144 29.7121 21.1212C29.7121 19.7148 29.1534 18.3659 28.1589 17.3714C27.1644 16.3769 25.8155 15.8182 24.4091 15.8182C23.0026 15.8182 21.6538 16.3769 20.6593 17.3714C19.6648 18.3659 19.1061 19.7148 19.1061 21.1212C19.1114 22.3144 19.5229 23.4703 20.2727 24.3985C18.8829 25.1119 17.6989 26.1692 16.8333 27.4697C15.9678 26.1692 14.7837 25.1119 13.3939 24.3985C14.1438 23.4703 14.5552 22.3144 14.5606 21.1212C14.5606 19.7148 14.0019 18.3659 13.0074 17.3714C12.0129 16.3769 10.664 15.8182 9.25758 15.8182C7.85112 15.8182 6.50228 16.3769 5.50777 17.3714C4.51325 18.3659 3.95454 19.7148 3.95454 21.1212C3.95993 22.3144 4.37139 23.4703 5.12121 24.3985C3.63116 25.1598 2.38015 26.3177 1.50596 27.7444C0.63177 29.1712 0.168324 30.8116 0.166664 32.4849C0.166664 32.8867 0.326296 33.2721 0.610442 33.5562C0.894588 33.8404 1.27997 34 1.68182 34H31.9849C32.3867 34 32.7721 33.8404 33.0562 33.5562C33.3404 33.2721 33.5 32.8867 33.5 32.4849C33.4983 30.8116 33.0349 29.1712 32.1607 27.7444C31.2865 26.3177 30.0355 25.1598 28.5455 24.3985ZM9.25758 18.8485C9.70708 18.8485 10.1465 18.9818 10.5202 19.2315C10.894 19.4812 11.1853 19.8362 11.3573 20.2515C11.5293 20.6668 11.5743 21.1237 11.4866 21.5646C11.3989 22.0055 11.1825 22.4104 10.8646 22.7283C10.5468 23.0461 10.1418 23.2626 9.70096 23.3503C9.2601 23.438 8.80313 23.393 8.38784 23.2209C7.97255 23.0489 7.6176 22.7576 7.36787 22.3839C7.11814 22.0101 6.98485 21.5707 6.98485 21.1212C6.98485 20.5185 7.22429 19.9404 7.65051 19.5142C8.07673 19.0879 8.65481 18.8485 9.25758 18.8485ZM3.38788 30.9697C3.72272 29.6674 4.48115 28.5134 5.54379 27.6894C6.60642 26.8655 7.91291 26.4183 9.25758 26.4183C10.6022 26.4183 11.9087 26.8655 12.9714 27.6894C14.034 28.5134 14.7924 29.6674 15.1273 30.9697H3.38788ZM24.4091 18.8485C24.8586 18.8485 25.298 18.9818 25.6718 19.2315C26.0455 19.4812 26.3368 19.8362 26.5088 20.2515C26.6808 20.6668 26.7258 21.1237 26.6382 21.5646C26.5505 22.0055 26.334 22.4104 26.0162 22.7283C25.6983 23.0461 25.2933 23.2626 24.8525 23.3503C24.4116 23.438 23.9546 23.393 23.5394 23.2209C23.1241 23.0489 22.7691 22.7576 22.5194 22.3839C22.2697 22.0101 22.1364 21.5707 22.1364 21.1212C22.1364 20.5185 22.3758 19.9404 22.802 19.5142C23.2283 19.0879 23.8063 18.8485 24.4091 18.8485ZM18.5394 30.9697C18.8742 29.6674 19.6327 28.5134 20.6953 27.6894C21.7579 26.8655 23.0644 26.4183 24.4091 26.4183C25.7538 26.4183 27.0602 26.8655 28.1229 27.6894C29.1855 28.5134 29.944 29.6674 30.2788 30.9697H18.5394ZM7.74242 2.18182V11.2727C7.74242 11.6746 7.90206 12.06 8.1862 12.3441C8.47035 12.6283 8.85573 12.7879 9.25758 12.7879H13.5985L15.6697 15.2742C15.8119 15.4448 15.9898 15.5819 16.1909 15.6761C16.392 15.7702 16.6113 15.819 16.8333 15.819C17.0554 15.819 17.2747 15.7702 17.4758 15.6761C17.6768 15.5819 17.8548 15.4448 17.997 15.2742L20.0682 12.7879H24.4091C24.8109 12.7879 25.1963 12.6283 25.4805 12.3441C25.7646 12.06 25.9242 11.6746 25.9242 11.2727V2.18182C25.9242 1.77998 25.7646 1.3946 25.4805 1.11045C25.1963 0.826303 24.8109 0.666672 24.4091 0.666672H9.25758C8.85573 0.666672 8.47035 0.826303 8.1862 1.11045C7.90206 1.3946 7.74242 1.77998 7.74242 2.18182ZM10.7727 3.69697H22.8939V9.75758H19.3591C19.1369 9.75726 18.9173 9.80582 18.716 9.89982C18.5146 9.99382 18.3364 10.131 18.1939 10.3015L16.8333 11.9364L15.4697 10.3015C15.3276 10.1314 15.1499 9.99444 14.9491 9.90046C14.7483 9.80647 14.5293 9.7577 14.3076 9.75758H10.7727V3.69697Z" fill="#003E52"/>
</svg>
