<svg width="16" height="16" viewBox="0 0 16 16" fill="none" xmlns="http://www.w3.org/2000/svg">
<path d="M14.7995 2.09134C14.3616 1.56152 13.8117 1.13541 13.1893 0.84371C12.5669 0.552013 11.8875 0.401992 11.2002 0.404453C10.0241 0.368842 8.87908 0.785335 8.00074 1.56824C7.1224 0.785335 5.9774 0.368842 4.80133 0.404453C4.11397 0.401992 3.43462 0.552013 2.81223 0.84371C2.18983 1.13541 1.63987 1.56152 1.20198 2.09134C0.439723 3.01598 -0.357732 4.69007 0.170972 7.41837C1.01482 11.7752 7.34246 15.3505 7.60961 15.4969C7.7287 15.5633 7.86279 15.5982 7.99914 15.5982C8.13549 15.5982 8.26958 15.5633 8.38867 15.4969C8.65742 15.3473 14.9851 11.772 15.8273 7.41837C16.3592 4.69007 15.5618 3.01598 14.7995 2.09134ZM14.2604 7.11443C13.6637 10.1947 9.3269 13.0597 8.00074 13.874C6.13228 12.7462 2.28819 9.91472 1.74508 7.11443C1.33476 4.99801 1.89626 3.76864 2.44016 3.10956C2.72779 2.76251 3.08866 2.48342 3.49689 2.29231C3.90512 2.10119 4.35058 2.00279 4.80133 2.00416C5.28275 1.96805 5.76532 2.05731 6.20198 2.26324C6.63863 2.46916 7.01448 2.78472 7.29287 3.17915C7.36152 3.30547 7.46279 3.41107 7.58614 3.48494C7.70948 3.55882 7.85038 3.59826 7.99415 3.59916C8.13792 3.60005 8.27929 3.56238 8.40355 3.49005C8.52781 3.41773 8.63039 3.3134 8.70061 3.18794C8.97847 2.79045 9.35511 2.47222 9.79343 2.26463C10.2317 2.05705 10.7166 1.96727 11.2002 2.00416C11.6518 2.00196 12.0984 2.09996 12.5077 2.29111C12.9169 2.48225 13.2787 2.76178 13.5669 3.10956C14.1092 3.76864 14.6707 4.99801 14.2604 7.11443Z" fill="#FF5A5A"/>
</svg>
