<svg width="16" height="18" viewBox="0 0 16 18" fill="none" xmlns="http://www.w3.org/2000/svg">
<path d="M0.441002 5.1L8 0L15.559 5.1C15.695 5.19171 15.8064 5.31548 15.8833 5.4604C15.9602 5.60532 16.0003 5.76694 16 5.931V17C16 17.2652 15.8946 17.5196 15.7071 17.7071C15.5196 17.8946 15.2652 18 15 18H1C0.734785 18 0.480431 17.8946 0.292895 17.7071C0.105359 17.5196 1.67704e-06 17.2652 1.67704e-06 17V5.931C-0.000298756 5.76694 0.0397711 5.60532 0.116678 5.4604C0.193585 5.31548 0.304966 5.19171 0.441002 5.1Z" fill="#FF5A5A"/>
</svg>
