<svg width="21" height="20" viewBox="0 0 21 20" fill="none" xmlns="http://www.w3.org/2000/svg">
<path d="M10.75 20C12.7278 20 14.6612 19.4135 16.3057 18.3147C17.9502 17.2159 19.2319 15.6541 19.9888 13.8268C20.7457 11.9996 20.9437 9.98891 20.5578 8.0491C20.172 6.10929 19.2196 4.32746 17.8211 2.92894C16.4225 1.53041 14.6407 0.578004 12.7009 0.192151C10.7611 -0.193702 8.75043 0.00433245 6.92317 0.761208C5.09591 1.51808 3.53412 2.79981 2.43531 4.4443C1.33649 6.08879 0.750003 8.02219 0.750003 10C0.750003 11.3132 1.00866 12.6136 1.51121 13.8268C2.01375 15.0401 2.75035 16.1425 3.67893 17.0711C4.60752 17.9997 5.70991 18.7362 6.92316 19.2388C8.13642 19.7413 9.43678 20 10.75 20ZM11.75 15C11.75 15.2652 11.6446 15.5196 11.4571 15.7071C11.2696 15.8946 11.0152 16 10.75 16C10.4848 16 10.2304 15.8946 10.0429 15.7071C9.85536 15.5196 9.75 15.2652 9.75 15L9.75 9C9.75 8.73479 9.85536 8.48043 10.0429 8.2929C10.2304 8.10536 10.4848 8 10.75 8C11.0152 8 11.2696 8.10536 11.4571 8.2929C11.6446 8.48043 11.75 8.73479 11.75 9L11.75 15ZM10.75 3C11.0467 3 11.3367 3.08798 11.5834 3.2528C11.83 3.41762 12.0223 3.65189 12.1358 3.92598C12.2494 4.20007 12.2791 4.50167 12.2212 4.79264C12.1633 5.08361 12.0204 5.35088 11.8107 5.56066C11.6009 5.77044 11.3336 5.9133 11.0426 5.97118C10.7517 6.02906 10.4501 5.99935 10.176 5.88582C9.90189 5.77229 9.66762 5.58003 9.5028 5.33336C9.33797 5.08669 9.25 4.79668 9.25 4.5C9.25 4.10218 9.40803 3.72065 9.68934 3.43935C9.97064 3.15804 10.3522 3 10.75 3Z" fill="#003E52"/>
</svg>
