<svg width="21" height="20" viewBox="0 0 21 20" fill="none" xmlns="http://www.w3.org/2000/svg">
<path d="M10.5 4.865C9.48439 4.865 8.49159 5.16616 7.64715 5.7304C6.8027 6.29464 6.14453 7.09662 5.75588 8.03492C5.36722 8.97322 5.26553 10.0057 5.46367 11.0018C5.6618 11.9979 6.15086 12.9129 6.86901 13.631C7.58715 14.3491 8.50212 14.8382 9.49821 15.0363C10.4943 15.2345 11.5268 15.1328 12.4651 14.7441C13.4034 14.3555 14.2054 13.6973 14.7696 12.8529C15.3338 12.0084 15.635 11.0156 15.635 10C15.635 8.63811 15.094 7.33201 14.131 6.36901C13.168 5.40601 11.8619 4.865 10.5 4.865ZM10.5 13.334C9.8406 13.334 9.196 13.1385 8.64773 12.7721C8.09946 12.4058 7.67213 11.8851 7.41979 11.2759C7.16744 10.6667 7.10142 9.9963 7.23006 9.34957C7.3587 8.70284 7.67624 8.10877 8.14251 7.64251C8.60877 7.17624 9.20284 6.8587 9.84957 6.73006C10.4963 6.60142 11.1667 6.66744 11.7759 6.91979C12.3851 7.17213 12.9058 7.59946 13.2721 8.14773C13.6385 8.696 13.834 9.3406 13.834 10C13.834 10.8842 13.4827 11.7322 12.8575 12.3575C12.2322 12.9827 11.3842 13.334 10.5 13.334ZM17.039 4.662C17.039 4.89934 16.9686 5.13135 16.8368 5.32868C16.7049 5.52602 16.5175 5.67983 16.2982 5.77066C16.0789 5.86148 15.8377 5.88524 15.6049 5.83894C15.3721 5.79264 15.1583 5.67835 14.9905 5.51053C14.8226 5.34271 14.7084 5.12889 14.6621 4.89611C14.6158 4.66333 14.6395 4.42205 14.7303 4.20278C14.8212 3.98351 14.975 3.79609 15.1723 3.66424C15.3697 3.53238 15.6017 3.462 15.839 3.462C15.9966 3.462 16.1526 3.49304 16.2982 3.55334C16.4438 3.61365 16.5761 3.70204 16.6875 3.81347C16.799 3.9249 16.8873 4.05719 16.9477 4.20278C17.008 4.34837 17.039 4.50441 17.039 4.662ZM19.976 3.45C19.7244 2.78263 19.3306 2.17798 18.822 1.678C18.323 1.1694 17.7189 0.7759 17.052 0.525C16.2748 0.233772 15.4538 0.076867 14.624 0.0610001C13.558 0.0120001 13.217 0 10.5 0C7.783 0 7.443 0.0110001 6.376 0.0610001C5.54656 0.0771349 4.72589 0.234033 3.949 0.525C3.28219 0.776074 2.67815 1.16955 2.179 1.678C1.66949 2.17726 1.27559 2.78212 1.025 3.45C0.734145 4.22692 0.577251 5.04758 0.561 5.877C0.511 6.943 0.5 7.284 0.5 10C0.5 12.716 0.511 13.057 0.561 14.123C0.577251 14.9524 0.734145 15.7731 1.025 16.55C1.27559 17.2179 1.66949 17.8227 2.179 18.322C2.67875 18.8302 3.28305 19.2236 3.95 19.475C4.72695 19.7658 5.54759 19.9227 6.377 19.939C7.444 19.988 7.785 20 10.5 20C13.215 20 13.557 19.989 14.623 19.939C15.4528 19.9228 16.2738 19.7659 17.051 19.475C17.7154 19.2181 18.3188 18.8252 18.8225 18.3215C19.3262 17.8178 19.7191 17.2144 19.976 16.55C20.2673 15.7732 20.4243 14.9525 20.44 14.123C20.489 13.056 20.5 12.716 20.5 10C20.5 7.284 20.489 6.943 20.44 5.877C20.4239 5.04756 20.267 4.22689 19.976 3.45ZM18.641 14.041C18.6351 14.6757 18.5197 15.3045 18.3 15.9C18.1337 16.3319 17.8787 16.7242 17.5515 17.0515C17.2242 17.3787 16.8319 17.6337 16.4 17.8C15.8052 18.02 15.1771 18.1363 14.543 18.144C13.489 18.192 13.172 18.202 10.501 18.202C7.83 18.202 7.515 18.192 6.461 18.144C5.82554 18.1368 5.19604 18.0204 4.6 17.8C4.16562 17.6397 3.77266 17.3841 3.45 17.052C3.1177 16.7295 2.86208 16.3365 2.702 15.902C2.481 15.3075 2.36462 14.6792 2.358 14.045C2.312 12.987 2.3 12.671 2.3 10C2.3 7.329 2.31 7.014 2.358 5.959C2.3665 5.32405 2.48387 4.69526 2.705 4.1C2.86532 3.66562 3.12091 3.27266 3.453 2.95C3.77398 2.61682 4.16607 2.36044 4.6 2.2C5.19569 1.98003 5.82501 1.86499 6.46 1.86C7.514 1.811 7.831 1.8 10.5 1.8C13.169 1.8 13.487 1.811 14.542 1.859C15.1763 1.8657 15.8047 1.98103 16.4 2.2C16.8319 2.36626 17.2242 2.62126 17.5515 2.94853C17.8787 3.2758 18.1337 3.66807 18.3 4.1C18.521 4.6945 18.6374 5.32278 18.644 5.957C18.69 7.014 18.7 7.33 18.7 10C18.7 12.67 18.69 12.986 18.641 14.041Z" fill="#FF5A5A"/>
</svg>
