<svg width="36" height="36" viewBox="0 0 36 36" fill="none" xmlns="http://www.w3.org/2000/svg">
<path d="M33.9094 10.0452H28.2044L19.125 0.965801C18.8266 0.667549 18.422 0.5 18.0002 0.5C17.5783 0.5 17.1737 0.667549 16.8754 0.965801L7.79598 10.0452H2.09092C1.66899 10.0452 1.26433 10.2128 0.965971 10.5112C0.667615 10.8095 0.5 11.2142 0.5 11.6361V33.9091C0.5 34.331 0.667615 34.7357 0.965971 35.034C1.26433 35.3324 1.66899 35.5 2.09092 35.5H33.9094C34.3314 35.5 34.736 35.3324 35.0344 35.034C35.3327 34.7357 35.5003 34.331 35.5003 33.9091V11.6361C35.5003 11.2142 35.3327 10.8095 35.0344 10.5112C34.736 10.2128 34.3314 10.0452 33.9094 10.0452ZM18.0002 4.34015L23.7052 10.0452H12.2951L18.0002 4.34015ZM32.3185 32.3181H3.68185V13.2271H32.3185V32.3181ZM6.8637 19.5908C6.8637 19.1688 7.03131 18.7642 7.32967 18.4658C7.62803 18.1674 8.03268 17.9998 8.45462 17.9998H27.5457C27.9677 17.9998 28.3723 18.1674 28.6707 18.4658C28.969 18.7642 29.1366 19.1688 29.1366 19.5908C29.1366 20.0127 28.969 20.4174 28.6707 20.7157C28.3723 21.0141 27.9677 21.1817 27.5457 21.1817H8.45462C8.03268 21.1817 7.62803 21.0141 7.32967 20.7157C7.03131 20.4174 6.8637 20.0127 6.8637 19.5908ZM25.9548 25.9545C25.9548 26.3764 25.7872 26.781 25.4888 27.0794C25.1905 27.3778 24.7858 27.5454 24.3639 27.5454H11.6365C11.2145 27.5454 10.8099 27.3778 10.5115 27.0794C10.2132 26.781 10.0455 26.3764 10.0455 25.9545C10.0455 25.5325 10.2132 25.1279 10.5115 24.8295C10.8099 24.5311 11.2145 24.3635 11.6365 24.3635H24.3639C24.7858 24.3635 25.1905 24.5311 25.4888 24.8295C25.7872 25.1279 25.9548 25.5325 25.9548 25.9545Z" fill="#FF5A5A"/>
</svg>
