<svg width="40" height="41" viewBox="0 0 40 41" fill="none" xmlns="http://www.w3.org/2000/svg">
<g clip-path="url(#clip0_15288:3164)">
<g filter="url(#filter0_d_15288:3164)">
<path d="M20.0001 36.8484C23.9691 35.2346 27.3611 32.4644 29.7353 28.8977C32.1095 25.3311 33.3562 21.1328 33.3134 16.8484C33.3531 15.0746 33.038 13.3107 32.3866 11.6603C31.7352 10.0099 30.7607 8.50632 29.5202 7.23775C28.2797 5.96919 26.7983 4.96124 25.1628 4.2731C23.5274 3.58495 21.771 3.23047 19.9968 3.23047C18.2225 3.23047 16.4661 3.58495 14.8307 4.2731C13.1953 4.96124 11.7138 5.96919 10.4733 7.23775C9.23283 8.50632 8.25828 10.0099 7.60689 11.6603C6.9555 13.3107 6.6404 15.0746 6.68009 16.8484C6.63786 21.1336 7.88555 25.3324 10.261 28.8991C12.6364 32.4659 16.0298 35.2356 20.0001 36.8484Z" fill="#003E52"/>
</g>
<path d="M22.8075 17.9779C22.8075 18.6688 22.2246 19.2329 21.5062 19.2329C20.7878 19.2329 20.2049 18.6705 20.2049 17.9779H19.718C19.718 18.6688 19.1333 19.2329 18.4166 19.2329C17.6982 19.2329 17.1153 18.6705 17.1153 17.9779H16.6284C16.6284 18.0156 16.6267 18.0499 16.6249 18.0807V18.0893C16.6249 18.2693 16.5667 18.4648 16.4861 18.6259C16.4038 18.7905 16.2683 18.9191 16.114 19.0169C15.7591 19.2432 15.3253 19.3426 14.9104 19.2466C14.6412 19.1849 14.3875 19.0443 14.2177 18.8231C14.0806 18.5899 14 18.3036 14 17.9556V16.4519L16.2392 14.1819H23.7454L26 16.4365V17.9401C26 17.9967 25.9983 18.0516 25.9931 18.1047C25.9743 18.3345 25.916 18.5402 25.8268 18.7168C25.772 18.8077 25.7034 18.8866 25.6245 18.9534C25.1513 19.3495 24.3866 19.2192 24.3798 19.2175L24.3746 19.2157C23.9837 19.154 23.3253 18.9191 23.2962 18.0361C23.2962 18.0156 23.2945 17.9967 23.2945 17.9761L22.8075 17.9779ZM14.6001 19.665V24.9148C14.6001 25.1652 14.8041 25.3692 15.0544 25.3692H17.8714C17.9914 25.3692 18.108 25.3212 18.192 25.2355L20.1997 23.2277C20.3506 23.0769 20.6095 23.1832 20.6095 23.3975V25.2389C20.6095 25.3109 20.6678 25.3692 20.7398 25.3692H24.9764C25.2267 25.3692 25.4308 25.1652 25.4308 24.9148V19.6118C25.0896 19.7301 24.7107 19.7558 24.3523 19.7095C23.9769 19.6598 23.6048 19.5175 23.3236 19.2586C23.2653 19.2055 23.2122 19.1472 23.1625 19.0854C23.1384 19.0546 23.1144 19.022 23.0922 18.9894C23.0853 18.9791 23.0236 18.8968 23.0287 18.8883C22.7132 19.3872 22.1474 19.7215 21.5028 19.7215C20.8444 19.7215 20.2683 19.3735 19.958 18.8557C19.6477 19.3735 19.0716 19.7215 18.4115 19.7215C17.7703 19.7215 17.2062 19.3906 16.8907 18.8951C16.8513 18.9654 16.8084 19.034 16.7587 19.0992L16.7535 19.1043C16.7484 19.1112 16.7432 19.118 16.7381 19.1232C16.6301 19.2518 16.4964 19.3529 16.3523 19.4404C16.1689 19.5518 15.9683 19.6512 15.7608 19.7095C15.4248 19.8021 15.0647 19.7953 14.7287 19.7061C14.7201 19.701 14.6001 19.6735 14.6001 19.665Z" fill="#FDFBEF"/>
</g>
<defs>
<filter id="filter0_d_15288:3164" x="2.67676" y="3.23047" width="34.6401" height="41.6179" filterUnits="userSpaceOnUse" color-interpolation-filters="sRGB">
<feFlood flood-opacity="0" result="BackgroundImageFix"/>
<feColorMatrix in="SourceAlpha" type="matrix" values="0 0 0 0 0 0 0 0 0 0 0 0 0 0 0 0 0 0 127 0" result="hardAlpha"/>
<feOffset dy="4"/>
<feGaussianBlur stdDeviation="2"/>
<feColorMatrix type="matrix" values="0 0 0 0 0 0 0 0 0 0 0 0 0 0 0 0 0 0 0.25 0"/>
<feBlend mode="normal" in2="BackgroundImageFix" result="effect1_dropShadow_15288:3164"/>
<feBlend mode="normal" in="SourceGraphic" in2="effect1_dropShadow_15288:3164" result="shape"/>
</filter>
<clipPath id="clip0_15288:3164">
<rect width="40" height="40" fill="white" transform="translate(0 0.181885)"/>
</clipPath>
</defs>
</svg>
