<svg width="19" height="18" viewBox="0 0 19 18" fill="none" xmlns="http://www.w3.org/2000/svg">
<path d="M2.70455 4.90909C3.19001 4.90909 3.66457 4.76513 4.06822 4.49543C4.47187 4.22572 4.78647 3.84237 4.97225 3.39386C5.15803 2.94535 5.20664 2.45182 5.11193 1.97569C5.01722 1.49955 4.78345 1.0622 4.44017 0.718921C4.0969 0.375646 3.65954 0.141874 3.1834 0.0471645C2.70727 -0.0475447 2.21374 0.00106352 1.76523 0.186842C1.31672 0.372621 0.933374 0.687226 0.663665 1.09087C0.393957 1.49452 0.25 1.96908 0.25 2.45455C0.25 3.10553 0.508603 3.72986 0.96892 4.19017C1.42924 4.65049 2.05356 4.90909 2.70455 4.90909ZM2.70455 1.63636C2.86637 1.63636 3.02455 1.68435 3.1591 1.77425C3.29365 1.86416 3.39852 1.99194 3.46045 2.14144C3.52237 2.29094 3.53858 2.45545 3.50701 2.61417C3.47544 2.77288 3.39751 2.91866 3.28309 3.03309C3.16866 3.14751 3.02288 3.22544 2.86416 3.25701C2.70545 3.28858 2.54094 3.27237 2.39144 3.21045C2.24194 3.14852 2.11416 3.04365 2.02425 2.9091C1.93435 2.77455 1.88636 2.61637 1.88636 2.45455C1.88636 2.23755 1.97256 2.02944 2.126 1.876C2.27944 1.72257 2.48755 1.63636 2.70455 1.63636ZM2.70455 11.4545C3.19001 11.4545 3.66457 11.3106 4.06822 11.0409C4.47187 10.7712 4.78647 10.3878 4.97225 9.93931C5.15803 9.4908 5.20664 8.99728 5.11193 8.52114C5.01722 8.04501 4.78345 7.60765 4.44017 7.26437C4.0969 6.9211 3.65954 6.68733 3.1834 6.59262C2.70727 6.49791 2.21374 6.54652 1.76523 6.7323C1.31672 6.91807 0.933374 7.23268 0.663665 7.63633C0.393957 8.03998 0.25 8.51454 0.25 9C0.25 9.65099 0.508603 10.2753 0.96892 10.7356C1.42924 11.1959 2.05356 11.4545 2.70455 11.4545ZM2.70455 8.18182C2.86637 8.18182 3.02455 8.2298 3.1591 8.31971C3.29365 8.40961 3.39852 8.53739 3.46045 8.6869C3.52237 8.8364 3.53858 9.00091 3.50701 9.15962C3.47544 9.31833 3.39751 9.46412 3.28309 9.57854C3.16866 9.69297 3.02288 9.77089 2.86416 9.80246C2.70545 9.83403 2.54094 9.81783 2.39144 9.7559C2.24194 9.69398 2.11416 9.58911 2.02425 9.45456C1.93435 9.32001 1.88636 9.16182 1.88636 9C1.88636 8.783 1.97256 8.5749 2.126 8.42146C2.27944 8.26802 2.48755 8.18182 2.70455 8.18182ZM2.70455 18C3.19001 18 3.66457 17.856 4.06822 17.5863C4.47187 17.3166 4.78647 16.9333 4.97225 16.4848C5.15803 16.0363 5.20664 15.5427 5.11193 15.0666C5.01722 14.5905 4.78345 14.1531 4.44017 13.8098C4.0969 13.4666 3.65954 13.2328 3.1834 13.1381C2.70727 13.0434 2.21374 13.092 1.76523 13.2778C1.31672 13.4635 0.933374 13.7781 0.663665 14.1818C0.393957 14.5854 0.25 15.06 0.25 15.5455C0.25 16.1964 0.508603 16.8208 0.96892 17.2811C1.42924 17.7414 2.05356 18 2.70455 18ZM2.70455 14.7273C2.86637 14.7273 3.02455 14.7753 3.1591 14.8652C3.29365 14.9551 3.39852 15.0828 3.46045 15.2324C3.52237 15.3819 3.53858 15.5464 3.50701 15.7051C3.47544 15.8638 3.39751 16.0096 3.28309 16.124C3.16866 16.2384 3.02288 16.3163 2.86416 16.3479C2.70545 16.3795 2.54094 16.3633 2.39144 16.3014C2.24194 16.2394 2.11416 16.1346 2.02425 16C1.93435 15.8655 1.88636 15.7073 1.88636 15.5455C1.88636 15.3285 1.97256 15.1204 2.126 14.9669C2.27944 14.8135 2.48755 14.7273 2.70455 14.7273ZM18.25 2.45455C18.25 2.67154 18.1638 2.87965 18.0104 3.03309C17.8569 3.18653 17.6488 3.27273 17.4318 3.27273H7.61364C7.39664 3.27273 7.18853 3.18653 7.03509 3.03309C6.88166 2.87965 6.79545 2.67154 6.79545 2.45455C6.79545 2.23755 6.88166 2.02944 7.03509 1.876C7.18853 1.72257 7.39664 1.63636 7.61364 1.63636H17.4318C17.6488 1.63636 17.8569 1.72257 18.0104 1.876C18.1638 2.02944 18.25 2.23755 18.25 2.45455ZM18.25 9C18.25 9.217 18.1638 9.4251 18.0104 9.57854C17.8569 9.73198 17.6488 9.81818 17.4318 9.81818H7.61364C7.39664 9.81818 7.18853 9.73198 7.03509 9.57854C6.88166 9.4251 6.79545 9.217 6.79545 9C6.79545 8.783 6.88166 8.5749 7.03509 8.42146C7.18853 8.26802 7.39664 8.18182 7.61364 8.18182H17.4318C17.6488 8.18182 17.8569 8.26802 18.0104 8.42146C18.1638 8.5749 18.25 8.783 18.25 9ZM18.25 15.5455C18.25 15.7625 18.1638 15.9706 18.0104 16.124C17.8569 16.2774 17.6488 16.3636 17.4318 16.3636H7.61364C7.39664 16.3636 7.18853 16.2774 7.03509 16.124C6.88166 15.9706 6.79545 15.7625 6.79545 15.5455C6.79545 15.3285 6.88166 15.1204 7.03509 14.9669C7.18853 14.8135 7.39664 14.7273 7.61364 14.7273H17.4318C17.6488 14.7273 17.8569 14.8135 18.0104 14.9669C18.1638 15.1204 18.25 15.3285 18.25 15.5455Z" fill="#003E52"/>
</svg>
