<svg width="19" height="30" viewBox="0 0 19 30" fill="none" xmlns="http://www.w3.org/2000/svg">
<path d="M17 30C17.3978 30 17.7794 29.842 18.0607 29.5607C18.342 29.2794 18.5 28.8978 18.5 28.5V1.5C18.5 1.10218 18.342 0.720644 18.0607 0.43934C17.7794 0.158035 17.3978 0 17 0H2C1.60218 0 1.22064 0.158035 0.93934 0.43934C0.658036 0.720644 0.5 1.10218 0.5 1.5V28.5C0.5 28.8978 0.658036 29.2794 0.93934 29.5607C1.22064 29.842 1.60218 30 2 30H17ZM9.5 27C9.20333 27 8.91332 26.912 8.66664 26.7472C8.41997 26.5824 8.22771 26.3481 8.11418 26.074C8.00065 25.7999 7.97094 25.4983 8.02882 25.2074C8.0867 24.9164 8.22956 24.6491 8.43934 24.4393C8.64912 24.2296 8.91639 24.0867 9.20737 24.0288C9.49834 23.9709 9.79994 24.0006 10.074 24.1142C10.3481 24.2277 10.5824 24.42 10.7472 24.6666C10.912 24.9133 11 25.2033 11 25.5C11 25.8978 10.842 26.2794 10.5607 26.5607C10.2794 26.842 9.89782 27 9.5 27ZM14 1.5L12.5 3H6.5L5 1.5H14Z" fill="#FF5A5A"/>
</svg>
