<svg width="17" height="18" viewBox="0 0 17 18" fill="none" xmlns="http://www.w3.org/2000/svg">
<path d="M15.7 0.200195H1.3C1.08783 0.200195 0.884344 0.284481 0.734315 0.43451C0.584285 0.584539 0.5 0.788022 0.5 1.0002V17.0002C0.5 17.2124 0.584285 17.4159 0.734315 17.5659C0.884344 17.7159 1.08783 17.8002 1.3 17.8002H12.5C12.6052 17.7998 12.7092 17.7789 12.8064 17.7386C12.9036 17.6984 12.992 17.6394 13.0664 17.565L16.2664 14.365C16.4074 14.2095 16.49 14.0099 16.5 13.8002V1.0002C16.5 0.788022 16.4157 0.584539 16.2657 0.43451C16.1157 0.284481 15.9122 0.200195 15.7 0.200195ZM11.7 13.8002V16.2002H2.1V1.8002H14.9V13.0002H12.5C12.2878 13.0002 12.0843 13.0845 11.9343 13.2345C11.7843 13.3845 11.7 13.588 11.7 13.8002Z" fill="black"/>
</svg>
