<svg width="14" height="16" viewBox="0 0 14 16" fill="none" xmlns="http://www.w3.org/2000/svg">
<path d="M11.3637 0H2.63641C2.05775 0 1.5028 0.22981 1.09363 0.638874C0.684459 1.04794 0.45459 1.60275 0.45459 2.18125V15.2688C0.45459 15.4214 0.502617 15.5701 0.591868 15.6939C0.68112 15.8177 0.80707 15.9103 0.951879 15.9585C1.09669 16.0068 1.25301 16.0083 1.39871 15.9628C1.54441 15.9173 1.6721 15.8271 1.76368 15.705L3.23932 13.7419L4.16732 15.5974C4.22244 15.7078 4.30477 15.8024 4.40656 15.8723C4.50835 15.9421 4.62624 15.9849 4.74914 15.9966C4.87303 16.0088 4.99796 15.9883 5.11151 15.9373C5.22506 15.8863 5.32328 15.8065 5.39641 15.7057L7.00004 13.5725L8.60004 15.705C8.67328 15.8056 8.77151 15.8854 8.88504 15.9364C8.99856 15.9874 9.12344 16.0079 9.24732 15.9958C9.37021 15.9841 9.48811 15.9414 9.58989 15.8715C9.69168 15.8017 9.77401 15.7071 9.82913 15.5967L10.7608 13.7419L12.2364 15.705C12.3042 15.7953 12.392 15.8686 12.493 15.9191C12.594 15.9696 12.7053 15.9958 12.8182 15.9958C13.0111 15.9958 13.1961 15.9192 13.3325 15.7829C13.4689 15.6465 13.5455 15.4616 13.5455 15.2688V2.18125C13.5455 1.60275 13.3156 1.04794 12.9065 0.638874C12.4973 0.22981 11.9423 0 11.3637 0ZM12.091 13.0875L11.2182 11.9242C11.145 11.8236 11.0468 11.7438 10.9332 11.6928C10.8197 11.6418 10.6948 11.6213 10.571 11.6333C10.4481 11.645 10.3302 11.6878 10.2284 11.7577C10.1266 11.8275 10.0443 11.9221 9.98913 12.0325L9.06113 13.888L7.58186 11.9242C7.51412 11.8339 7.42628 11.7606 7.32529 11.7101C7.2243 11.6596 7.11295 11.6333 7.00004 11.6333C6.88714 11.6333 6.77578 11.6596 6.6748 11.7101C6.57381 11.7606 6.48597 11.8339 6.41823 11.9242L4.94259 13.8909L4.01823 12.0354C3.96285 11.9235 3.87955 11.8276 3.77637 11.7572C3.67319 11.6868 3.5536 11.6441 3.42914 11.6333C3.30529 11.6216 3.18051 11.6422 3.06704 11.6932C2.95356 11.7442 2.85529 11.8238 2.78186 11.9242L1.90914 13.0875V2.18125C1.90914 1.98842 1.98576 1.80348 2.12215 1.66713C2.25854 1.53077 2.44352 1.45417 2.63641 1.45417H11.3637C11.5566 1.45417 11.7416 1.53077 11.8779 1.66713C12.0143 1.80348 12.091 1.98842 12.091 2.18125V13.0875ZM10.6364 5.81667C10.6364 6.0095 10.5598 6.19444 10.4234 6.3308C10.287 6.46715 10.102 6.54375 9.90913 6.54375H4.09095C3.89807 6.54375 3.71308 6.46715 3.57669 6.3308C3.4403 6.19444 3.36368 6.0095 3.36368 5.81667C3.36368 5.62384 3.4403 5.4389 3.57669 5.30254C3.71308 5.16619 3.89807 5.08959 4.09095 5.08959H9.90913C10.102 5.08959 10.287 5.16619 10.4234 5.30254C10.5598 5.4389 10.6364 5.62384 10.6364 5.81667ZM7.72732 8.725C7.72732 8.91784 7.65069 9.10278 7.5143 9.23913C7.37791 9.37548 7.19293 9.45209 7.00004 9.45209H4.09095C3.89807 9.45209 3.71308 9.37548 3.57669 9.23913C3.4403 9.10278 3.36368 8.91784 3.36368 8.725C3.36368 8.53217 3.4403 8.34723 3.57669 8.21088C3.71308 8.07452 3.89807 7.99792 4.09095 7.99792H7.00004C7.19293 7.99792 7.37791 8.07452 7.5143 8.21088C7.65069 8.34723 7.72732 8.53217 7.72732 8.725Z" fill="#FF5A5A"/>
</svg>
