<svg width="21" height="22" viewBox="0 0 21 22" fill="none" xmlns="http://www.w3.org/2000/svg">
<path d="M1.094 17.9141L10.094 21.9141H10.1C10.2257 21.9708 10.3621 22.0001 10.5 22.0001C10.6379 22.0001 10.7743 21.9708 10.9 21.9141H10.908L19.908 17.9141C20.0844 17.8353 20.2343 17.707 20.3393 17.5448C20.4444 17.3826 20.5002 17.1934 20.5 17.0001V5.00013C20.4953 4.80774 20.4372 4.62044 20.3323 4.45907C20.2275 4.2977 20.0799 4.1686 19.906 4.08613L10.906 0.0861269C10.7782 0.0293407 10.6399 0 10.5 0C10.3601 0 10.2218 0.0293407 10.094 0.0861269L1.094 4.08613C0.920188 4.16869 0.772662 4.29782 0.667804 4.45916C0.562947 4.62051 0.504862 4.80776 0.5 5.00013V17.0001C0.499975 17.1936 0.556081 17.3829 0.661515 17.5452C0.766948 17.7074 0.917181 17.8356 1.094 17.9141ZM2.5 6.53913L9.5 9.65013V19.4611L2.5 16.3501V6.53913ZM18.5 16.3501L11.5 19.4611V9.65013L18.5 6.53913V16.3501ZM10.5 2.09413L17.038 5.00013L10.5 7.90613L3.962 5.00013L10.5 2.09413Z" fill="#FF5A5A"/>
</svg>
