<svg width="23" height="18" viewBox="0 0 23 18" fill="none" xmlns="http://www.w3.org/2000/svg">
<path d="M21.5 0H1.5C1.23478 0 0.98043 0.105357 0.792893 0.292893C0.605357 0.48043 0.5 0.734784 0.5 1V17C0.5 17.2652 0.605357 17.5196 0.792893 17.7071C0.98043 17.8946 1.23478 18 1.5 18H21.5C21.7652 18 22.0196 17.8946 22.2071 17.7071C22.3946 17.5196 22.5 17.2652 22.5 17V1C22.5 0.734784 22.3946 0.48043 22.2071 0.292893C22.0196 0.105357 21.7652 0 21.5 0ZM20.5 16H2.5V15.469L7.533 11.269L8.833 12.246L7.793 13.293C7.61084 13.4816 7.51005 13.7342 7.51233 13.9964C7.5146 14.2586 7.61977 14.5094 7.80518 14.6948C7.99059 14.8802 8.2414 14.9854 8.5036 14.9877C8.7658 14.99 9.0184 14.8892 9.207 14.707L15.392 8.522L20.5 15.333V16ZM20.5 12L16.3 6.4C16.214 6.28541 16.1044 6.19062 15.9787 6.12207C15.8529 6.05351 15.7138 6.01278 15.5709 6.00263C15.428 5.99249 15.2846 6.01316 15.1504 6.06326C15.0162 6.11336 14.8943 6.1917 14.793 6.293L10.263 10.823L8.1 9.2C7.91999 9.06485 7.69964 8.99439 7.47461 9.00002C7.24958 9.00564 7.03303 9.08703 6.86 9.231L2.5 12.865V2H20.5V12ZM4.5 6C4.5 5.60444 4.6173 5.21776 4.83706 4.88886C5.05682 4.55996 5.36918 4.30362 5.73463 4.15224C6.10009 4.00087 6.50222 3.96126 6.89018 4.03843C7.27814 4.1156 7.63451 4.30608 7.91421 4.58579C8.19392 4.86549 8.3844 5.22186 8.46157 5.60982C8.53874 5.99778 8.49913 6.39991 8.34776 6.76537C8.19638 7.13082 7.94004 7.44318 7.61114 7.66294C7.28224 7.8827 6.89556 8 6.5 8C5.96957 8 5.46086 7.78929 5.08579 7.41421C4.71071 7.03914 4.5 6.53043 4.5 6Z" fill="#FF5A5A"/>
</svg>
