<svg width="23" height="22" viewBox="0 0 23 22" fill="none" xmlns="http://www.w3.org/2000/svg">
<path d="M21.5 6H20.408C20.062 4.083 18.685 3 16.5 3C15.706 3 14.675 2.094 13.846 1.367C12.978 0.6 12.291 0 11.5 0C10.406 0 8.557 1.567 7.092 3C6.952 3.053 3.507 2.482 2.64 6H1.5C1.23478 6 0.98043 6.10536 0.792893 6.29289C0.605357 6.48043 0.5 6.73478 0.5 7V11C0.5 13.9174 1.65893 16.7153 3.72183 18.7782C5.78473 20.8411 8.58262 22 11.5 22C14.4174 22 17.2153 20.8411 19.2782 18.7782C21.3411 16.7153 22.5 13.9174 22.5 11V7C22.5 6.73478 22.3946 6.48043 22.2071 6.29289C22.0196 6.10536 21.7652 6 21.5 6ZM6.5 5H10.5C10.7652 5 11.0196 4.89464 11.2071 4.70711C11.3946 4.51957 11.5 4.26522 11.5 4C11.5 3.73478 11.3946 3.48043 11.2071 3.29289C11.0196 3.10536 10.7652 3 10.5 3H10.08C10.5003 2.61999 10.9627 2.28918 11.458 2.014C11.8361 2.27024 12.1932 2.55614 12.526 2.869C13.607 3.818 14.952 5 16.5 5C17.538 5 18.113 5.3 18.357 6H4.734C4.89051 5.67251 5.14382 5.40099 5.45966 5.22214C5.77551 5.04329 6.13865 4.96575 6.5 5ZM2.5 8H20.5V10H2.5V8ZM11.5 20C9.28745 19.9968 7.15342 19.1797 5.50455 17.7043C3.85568 16.229 2.80724 14.1986 2.559 12H20.441C20.1928 14.1986 19.1443 16.229 17.4954 17.7043C15.8466 19.1797 13.7125 19.9968 11.5 20Z" fill="#FF5A5A"/>
</svg>
