<svg width="18" height="18" viewBox="0 0 18 18" fill="none" xmlns="http://www.w3.org/2000/svg">
<path d="M9 0C7.21997 0 5.47991 0.527841 3.99987 1.51677C2.51983 2.50571 1.36628 3.91131 0.685088 5.55585C0.00389959 7.20038 -0.17433 9.00998 0.172936 10.7558C0.520203 12.5016 1.37737 14.1053 2.63604 15.364C3.89471 16.6226 5.49836 17.4798 7.24419 17.8271C8.99002 18.1743 10.7996 17.9961 12.4442 17.3149C14.0887 16.6337 15.4943 15.4802 16.4832 14.0001C17.4722 12.5201 18 10.78 18 9C17.9972 6.61391 17.0481 4.32636 15.3609 2.63915C13.6736 0.95193 11.3861 0.00281493 9 0ZM9 16.3636C7.54361 16.3636 6.11993 15.9318 4.90899 15.1226C3.69804 14.3135 2.75423 13.1635 2.19689 11.8179C1.63955 10.4724 1.49373 8.99183 1.77786 7.56342C2.06198 6.13502 2.7633 4.82294 3.79313 3.79312C4.82295 2.7633 6.13502 2.06198 7.56343 1.77785C8.99183 1.49373 10.4724 1.63955 11.8179 2.19689C13.1635 2.75422 14.3135 3.69804 15.1226 4.90898C15.9318 6.11992 16.3636 7.54361 16.3636 9C16.3615 10.9523 15.585 12.824 14.2045 14.2045C12.824 15.585 10.9523 16.3615 9 16.3636ZM12.8512 6.30573L6.30573 12.8512C6.23025 12.9293 6.13997 12.9917 6.04015 13.0345C5.94033 13.0774 5.83297 13.1 5.72433 13.1009C5.61569 13.1019 5.50796 13.0812 5.4074 13.04C5.30685 12.9989 5.2155 12.9381 5.13868 12.8613C5.06186 12.7845 5.00111 12.6931 4.95997 12.5926C4.91883 12.492 4.89813 12.3843 4.89907 12.2757C4.90001 12.167 4.92259 12.0597 4.96547 11.9598C5.00835 11.86 5.07068 11.7697 5.14882 11.6943L11.6943 5.14882C11.7697 5.07067 11.86 5.00834 11.9599 4.96546C12.0597 4.92258 12.167 4.90001 12.2757 4.89907C12.3843 4.89812 12.492 4.91882 12.5926 4.95996C12.6932 5.0011 12.7845 5.06185 12.8613 5.13868C12.9381 5.2155 12.9989 5.30685 13.04 5.4074C13.0812 5.50795 13.1019 5.61569 13.1009 5.72433C13.1 5.83296 13.0774 5.94033 13.0345 6.04015C12.9917 6.13997 12.9293 6.23025 12.8512 6.30573ZM4.5 6.13636C4.5 5.81272 4.59597 5.49635 4.77578 5.22725C4.95559 4.95815 5.21115 4.74841 5.51016 4.62456C5.80916 4.50071 6.13818 4.4683 6.4556 4.53144C6.77303 4.59458 7.0646 4.75043 7.29345 4.97928C7.5223 5.20813 7.67815 5.4997 7.74129 5.81712C7.80443 6.13455 7.77202 6.46356 7.64817 6.76257C7.52432 7.06158 7.31458 7.31714 7.04548 7.49695C6.77638 7.67675 6.46001 7.77272 6.13637 7.77272C5.70238 7.77272 5.28616 7.60032 4.97928 7.29344C4.6724 6.98657 4.5 6.57035 4.5 6.13636ZM13.5 11.8636C13.5 12.1873 13.404 12.5036 13.2242 12.7727C13.0444 13.0418 12.7889 13.2516 12.4898 13.3754C12.1908 13.4993 11.8618 13.5317 11.5444 13.4686C11.227 13.4054 10.9354 13.2496 10.7066 13.0207C10.4777 12.7919 10.3219 12.5003 10.2587 12.1829C10.1956 11.8654 10.228 11.5364 10.3518 11.2374C10.4757 10.9384 10.6854 10.6829 10.9545 10.503C11.2236 10.3232 11.54 10.2273 11.8636 10.2273C12.2976 10.2273 12.7138 10.3997 13.0207 10.7065C13.3276 11.0134 13.5 11.4296 13.5 11.8636Z" fill="#FF5A5A"/>
</svg>
