<svg width="17" height="16" viewBox="0 0 17 16" fill="none" xmlns="http://www.w3.org/2000/svg">
<path fill-rule="evenodd" clip-rule="evenodd" d="M7.96664 1.91213C4.89654 1.91213 2.40773 4.39898 2.40773 7.46666C2.40773 10.5344 4.89654 13.0212 7.96664 13.0212C11.0367 13.0212 13.5255 10.5344 13.5255 7.46666C13.5255 4.39898 11.0367 1.91213 7.96664 1.91213ZM1.01602 7.46666C1.01602 3.63096 4.12792 0.521501 7.96664 0.521501C11.8054 0.521501 14.9173 3.63096 14.9173 7.46666C14.9173 11.3024 11.8054 14.4118 7.96664 14.4118C4.12792 14.4118 1.01602 11.3024 1.01602 7.46666Z" fill="#003E52"/>
<path fill-rule="evenodd" clip-rule="evenodd" d="M0.5 7.46666C0.5 3.33739 3.84846 0 7.96666 0C12.0849 0 15.4333 3.33739 15.4333 7.46666C15.4333 11.5959 12.0849 14.9333 7.96666 14.9333C3.84846 14.9333 0.5 11.5959 0.5 7.46666ZM7.96666 1.043C4.40742 1.043 1.53208 3.92452 1.53208 7.46666C1.53208 11.0088 4.40742 13.8903 7.96666 13.8903C11.5259 13.8903 14.4012 11.0088 14.4012 7.46666C14.4012 3.92452 11.5259 1.043 7.96666 1.043ZM7.96666 2.43363C5.17605 2.43363 2.9238 4.69254 2.9238 7.46666C2.9238 10.2408 5.17605 12.4997 7.96666 12.4997C10.7573 12.4997 13.0095 10.2408 13.0095 7.46666C13.0095 4.69254 10.7573 2.43363 7.96666 2.43363ZM1.89172 7.46666C1.89172 4.10541 4.61708 1.39062 7.96666 1.39062C11.3162 1.39062 14.0416 4.10541 14.0416 7.46666C14.0416 10.8279 11.3162 13.5427 7.96666 13.5427C4.61708 13.5427 1.89172 10.8279 1.89172 7.46666Z" fill="#003E52"/>
<path d="M11.5559 11.0553C12.0724 10.5381 12.9082 10.537 13.426 11.0529L16.1082 13.7252C16.6296 14.2446 16.6307 15.0906 16.1107 15.6114C15.5942 16.1286 14.7584 16.1297 14.2406 15.6138L11.5584 12.9415C11.037 12.4221 11.0359 11.5761 11.5559 11.0553Z" fill="#003E52"/>
</svg>
