<svg width="18" height="20" viewBox="0 0 18 20" fill="none" xmlns="http://www.w3.org/2000/svg">
<path d="M17.7276 9.99916C17.7276 9.91143 17.7044 9.82525 17.6605 9.74929C17.6167 9.67332 17.5536 9.61024 17.4776 9.56637L1.02167 0.0655596C0.934497 0.0158965 0.834397 -0.00639456 0.734386 0.00158394C0.634374 0.00956244 0.539075 0.0474414 0.460876 0.110297C0.382677 0.173153 0.325194 0.258079 0.295899 0.354037C0.266604 0.449994 0.266852 0.552545 0.29661 0.648359L2.93809 9.14909C2.97025 9.2507 3.03395 9.33941 3.11996 9.40236C3.20597 9.4653 3.3098 9.49919 3.41638 9.49912H9.22787C9.36049 9.49912 9.48768 9.5518 9.58146 9.64557C9.67523 9.73935 9.72791 9.86654 9.72791 9.99916C9.72791 10.1318 9.67523 10.259 9.58146 10.3527C9.48768 10.4465 9.36049 10.4992 9.22787 10.4992L3.41513 10.501C3.30876 10.501 3.20517 10.535 3.11943 10.5979C3.03368 10.6609 2.97025 10.7495 2.93834 10.851L0.29411 19.3517C0.264971 19.448 0.265253 19.5508 0.29492 19.6469C0.324588 19.7431 0.382288 19.8281 0.460624 19.8913C0.481126 19.906 0.501628 19.9205 0.52313 19.933C0.599146 19.9769 0.685375 20 0.773151 20C0.860927 20 0.947156 19.9769 1.02317 19.933L17.4793 10.4322C17.5553 10.3884 17.6183 10.3252 17.6619 10.2492C17.7055 10.1731 17.7282 10.0868 17.7276 9.99916Z" fill="#CBCBCB"/>
</svg>
