<svg width="18" height="18" viewBox="0 0 18 18" fill="none" xmlns="http://www.w3.org/2000/svg">
<path d="M9.00065 12.2727C9.64794 12.2727 10.2807 12.0808 10.8189 11.7212C11.3571 11.3616 11.7766 10.8504 12.0243 10.2524C12.272 9.65441 12.3368 8.99637 12.2105 8.36152C12.0842 7.72668 11.7725 7.14353 11.3148 6.68583C10.8571 6.22813 10.274 5.91644 9.63913 5.79016C9.00428 5.66388 8.34625 5.72869 7.74823 5.97639C7.15022 6.2241 6.63909 6.64357 6.27948 7.18177C5.91987 7.71997 5.72793 8.35272 5.72793 9C5.72793 9.86798 6.07273 10.7004 6.68649 11.3142C7.30024 11.9279 8.13267 12.2727 9.00065 12.2727ZM9.00065 7.36364C9.3243 7.36364 9.64067 7.45961 9.90977 7.63941C10.1789 7.81922 10.3886 8.07478 10.5125 8.37379C10.6363 8.6728 10.6687 9.00182 10.6056 9.31924C10.5424 9.63666 10.3866 9.92823 10.1577 10.1571C9.92889 10.3859 9.63732 10.5418 9.31989 10.6049C9.00247 10.6681 8.67345 10.6357 8.37444 10.5118C8.07544 10.388 7.81987 10.1782 7.64007 9.90911C7.46026 9.64002 7.36429 9.32364 7.36429 9C7.36429 8.56601 7.53669 8.14979 7.84357 7.84292C8.15045 7.53604 8.56666 7.36364 9.00065 7.36364V7.36364ZM2.04611 9.71755L1.22793 10.1913C1.04177 10.2987 0.878582 10.4417 0.747691 10.6121C0.6168 10.7826 0.520768 10.9771 0.465077 11.1847C0.409386 11.3923 0.395128 11.6088 0.423116 11.8218C0.451105 12.0349 0.520792 12.2404 0.628199 12.4265L1.84647 14.5358C1.95378 14.7223 2.09681 14.8857 2.26736 15.0168C2.43791 15.1479 2.63263 15.2441 2.8404 15.2999C3.04817 15.3557 3.26489 15.37 3.47818 15.3419C3.69146 15.3138 3.89712 15.244 4.08338 15.1364L4.90974 14.6585C5.03585 14.5874 5.17851 14.5507 5.32332 14.5523C5.46812 14.5539 5.60995 14.5936 5.73447 14.6675C5.85745 14.7387 5.95959 14.841 6.03066 14.964C6.10173 15.0871 6.13925 15.2266 6.13947 15.3687V16.3636C6.13947 16.7976 6.31187 17.2138 6.61875 17.5207C6.92563 17.8276 7.34185 18 7.77584 18H10.2304C10.6644 18 11.0806 17.8276 11.3875 17.5207C11.6943 17.2138 11.8667 16.7976 11.8667 16.3636V15.3671C11.8689 15.2243 11.9081 15.0846 11.9804 14.9615C12.0528 14.8384 12.1558 14.7361 12.2794 14.6648C12.4031 14.5934 12.5431 14.5553 12.6859 14.5542C12.8287 14.5531 12.9693 14.5891 13.094 14.6585L13.9196 15.1347C14.2954 15.3517 14.742 15.4105 15.1612 15.2982C15.5804 15.1859 15.9378 14.9116 16.1548 14.5358L17.3723 12.4265C17.4797 12.2404 17.5494 12.0349 17.5774 11.8218C17.6054 11.6088 17.5911 11.3923 17.5354 11.1847C17.4797 10.9771 17.3837 10.7826 17.2528 10.6121C17.1219 10.4417 16.9587 10.2987 16.7726 10.1913L15.9544 9.71755C15.8275 9.64364 15.7227 9.53716 15.6507 9.40913C15.5788 9.28111 15.5424 9.13618 15.5453 8.98936C15.5456 8.84602 15.5835 8.70528 15.6553 8.58121C15.7271 8.45715 15.8302 8.35412 15.9544 8.28245L16.7726 7.80873C16.9587 7.70135 17.1219 7.55835 17.2528 7.3879C17.3837 7.21744 17.4797 7.02288 17.5354 6.81531C17.5911 6.60774 17.6054 6.39124 17.5774 6.17816C17.5494 5.96508 17.4797 5.7596 17.3723 5.57345L16.1532 3.46418C16.0459 3.27795 15.9029 3.11469 15.7325 2.98372C15.5621 2.85275 15.3675 2.75663 15.16 2.70086C14.9524 2.6451 14.7359 2.63077 14.5228 2.65869C14.3096 2.68662 14.1041 2.75626 13.9179 2.86364L13.0916 3.34064C12.9668 3.41041 12.8261 3.44657 12.6831 3.44557C12.5402 3.44456 12.4 3.40642 12.2762 3.33489C12.1525 3.26336 12.0495 3.1609 11.9772 3.03755C11.905 2.9142 11.8661 2.7742 11.8643 2.63127V1.63636C11.8643 1.20237 11.6919 0.786158 11.385 0.47928C11.0781 0.172402 10.6619 0 10.2279 0H7.77338C7.33939 0 6.92317 0.172402 6.6163 0.47928C6.30942 0.786158 6.13702 1.20237 6.13702 1.63636V2.69509C6.13699 2.81788 6.10461 2.9385 6.04314 3.04479C5.98166 3.15108 5.89326 3.23929 5.78683 3.30055L5.66084 3.37336C5.55435 3.4339 5.43396 3.46573 5.31147 3.46573C5.18898 3.46573 5.06859 3.4339 4.96211 3.37336L4.08338 2.86364C3.89725 2.75607 3.69175 2.68623 3.47862 2.65811C3.26548 2.63 3.0489 2.64415 2.84124 2.69977C2.63358 2.75539 2.43892 2.85138 2.26837 2.98226C2.09782 3.11314 1.95474 3.27635 1.84729 3.46255L0.629835 5.57427C0.413041 5.94994 0.35426 6.39631 0.466408 6.81529C0.578556 7.23427 0.852458 7.59159 1.22793 7.80873L2.04611 8.28164C2.17289 8.35587 2.27762 8.46253 2.34952 8.59066C2.42142 8.71878 2.45789 8.86374 2.4552 9.01064C2.45541 9.15408 2.41767 9.29502 2.34583 9.41917C2.27398 9.54332 2.17058 9.64626 2.04611 9.71755V9.71755ZM2.86429 6.86455L2.04611 6.39164L3.2652 4.28236L4.14393 4.78964C4.49868 4.9935 4.90068 5.10078 5.30983 5.10078C5.71899 5.10078 6.12099 4.9935 6.47574 4.78964L6.60174 4.71764C6.95703 4.51261 7.25224 4.21788 7.45786 3.86294C7.66347 3.508 7.77227 3.10529 7.77338 2.69509V1.63636H10.2279V2.63127C10.2296 3.0615 10.3441 3.48376 10.5599 3.85596C10.7757 4.22816 11.0852 4.53729 11.4578 4.75252C11.8303 4.96776 12.2527 5.08158 12.683 5.08263C13.1132 5.08369 13.5362 4.97195 13.9097 4.75855L14.7337 4.28236L15.9552 6.39164L15.137 6.86455C14.7645 7.08271 14.4555 7.39455 14.2408 7.7691C14.0261 8.14365 13.9131 8.56786 13.9131 8.99959C13.9131 9.43132 14.0261 9.85553 14.2408 10.2301C14.4555 10.6046 14.7645 10.9165 15.137 11.1346L15.9552 11.6084L14.7377 13.7176L13.9097 13.2415C13.5362 13.0281 13.1132 12.9163 12.683 12.9174C12.2527 12.9184 11.8303 13.0322 11.4578 13.2475C11.0852 13.4627 10.7757 13.7718 10.5599 14.144C10.3441 14.5162 10.2296 14.9385 10.2279 15.3687V16.3636H7.77338V15.3687C7.77217 14.9383 7.65803 14.5157 7.44236 14.1433C7.22668 13.7708 6.91703 13.4614 6.54435 13.2461C6.17166 13.0307 5.74899 12.917 5.31857 12.9162C4.88815 12.9154 4.46506 13.0275 4.09156 13.2415L3.26765 13.7176L2.04611 11.6084L2.86429 11.1346C3.23684 10.9165 3.54582 10.6046 3.76053 10.2301C3.97524 9.85553 4.08821 9.43132 4.08821 8.99959C4.08821 8.56786 3.97524 8.14365 3.76053 7.7691C3.54582 7.39455 3.23684 7.08271 2.86429 6.86455V6.86455Z" fill="#FF5A5A"/>
</svg>
