<svg width="19" height="18" viewBox="0 0 19 18" fill="none" xmlns="http://www.w3.org/2000/svg">
<path d="M18.5391 3.6C18.5391 3.83869 18.4442 4.06761 18.2755 4.2364C18.1067 4.40518 17.8778 4.5 17.6391 4.5H15.8391C15.7863 4.49445 15.7341 4.48391 15.6834 4.4685C15.4776 5.07428 15.0633 5.5873 14.5145 5.91612C13.9657 6.24493 13.3179 6.36818 12.6867 6.26388C12.0555 6.15959 11.4818 5.83454 11.0679 5.34666C10.654 4.85878 10.4269 4.23978 10.4269 3.6C10.4269 2.96022 10.654 2.34122 11.0679 1.85334C11.4818 1.36546 12.0555 1.04041 12.6867 0.936116C13.3179 0.831822 13.9657 0.955067 14.5145 1.28388C15.0633 1.6127 15.4776 2.12572 15.6834 2.7315C15.7341 2.71609 15.7863 2.70555 15.8391 2.7H17.6391C17.8778 2.7 18.1067 2.79482 18.2755 2.9636C18.4442 3.13239 18.5391 3.3613 18.5391 3.6ZM17.6391 13.5H12.2391C12.1863 13.5055 12.1341 13.516 12.0834 13.5315C11.8776 12.9257 11.4633 12.4127 10.9145 12.0839C10.3657 11.7551 9.71795 11.6318 9.08672 11.7361C8.4555 11.8404 7.88181 12.1655 7.46793 12.6533C7.05405 13.1412 6.82686 13.7602 6.82686 14.4C6.82686 15.0398 7.05405 15.6588 7.46793 16.1467C7.88181 16.6345 8.4555 16.9596 9.08672 17.0639C9.71795 17.1682 10.3657 17.0449 10.9145 16.7161C11.4633 16.3873 11.8776 15.8743 12.0834 15.2685C12.1341 15.284 12.1863 15.2945 12.2391 15.3H17.6391C17.8778 15.3 18.1067 15.2052 18.2755 15.0364C18.4442 14.8676 18.5391 14.6387 18.5391 14.4C18.5391 14.1613 18.4442 13.9324 18.2755 13.7636C18.1067 13.5948 17.8778 13.5 17.6391 13.5ZM4.13906 15.3C4.37776 15.3 4.60668 15.2052 4.77546 15.0364C4.94424 14.8676 5.03906 14.6387 5.03906 14.4C5.03906 14.1613 4.94424 13.9324 4.77546 13.7636C4.60668 13.5948 4.37776 13.5 4.13906 13.5H1.43906C1.20037 13.5 0.971449 13.5948 0.802666 13.7636C0.633884 13.9324 0.539063 14.1613 0.539062 14.4C0.539063 14.6387 0.633884 14.8676 0.802666 15.0364C0.971449 15.2052 1.20037 15.3 1.43906 15.3H4.13906ZM1.43906 4.5H7.73906C7.97776 4.5 8.20668 4.40518 8.37546 4.2364C8.54424 4.06761 8.63906 3.83869 8.63906 3.6C8.63906 3.3613 8.54424 3.13239 8.37546 2.9636C8.20668 2.79482 7.97776 2.7 7.73906 2.7H1.43906C1.20037 2.7 0.971449 2.79482 0.802666 2.9636C0.633884 3.13239 0.539063 3.3613 0.539062 3.6C0.539063 3.83869 0.633884 4.06761 0.802666 4.2364C0.971449 4.40518 1.20037 4.5 1.43906 4.5Z" fill="#003E52"/>
</svg>
