<svg width="18" height="18" viewBox="0 0 18 18" fill="none" xmlns="http://www.w3.org/2000/svg">
<path d="M5.72728 8.18182V6.54545C5.72728 6.32846 5.81348 6.12035 5.96692 5.96691C6.12035 5.81347 6.32846 5.72727 6.54546 5.72727C6.76245 5.72727 6.97056 5.81347 7.124 5.96691C7.27744 6.12035 7.36364 6.32846 7.36364 6.54545V8.18182C7.36364 8.39881 7.27744 8.60692 7.124 8.76036C6.97056 8.9138 6.76245 9 6.54546 9C6.32846 9 6.12035 8.9138 5.96692 8.76036C5.81348 8.60692 5.72728 8.39881 5.72728 8.18182ZM11.4545 9C11.6715 9 11.8797 8.9138 12.0331 8.76036C12.1865 8.60692 12.2727 8.39881 12.2727 8.18182V6.54545C12.2727 6.32846 12.1865 6.12035 12.0331 5.96691C11.8797 5.81347 11.6715 5.72727 11.4545 5.72727C11.2376 5.72727 11.0294 5.81347 10.876 5.96691C10.7226 6.12035 10.6364 6.32846 10.6364 6.54545V8.18182C10.6364 8.39881 10.7226 8.60692 10.876 8.76036C11.0294 8.9138 11.2376 9 11.4545 9ZM11.6386 10.9375C11.3346 11.3518 10.9374 11.6887 10.4789 11.9209C10.0205 12.1531 9.51388 12.2741 9 12.2741C8.48613 12.2741 7.97947 12.1531 7.52106 11.9209C7.06265 11.6887 6.66536 11.3518 6.36137 10.9375C6.22423 10.7693 6.0259 10.6625 5.81001 10.6405C5.59412 10.6186 5.37836 10.6833 5.21019 10.8205C5.04201 10.9576 4.93521 11.1559 4.91327 11.3718C4.89133 11.5877 4.95604 11.8035 5.09318 11.9716C5.55119 12.5736 6.14209 13.0616 6.81978 13.3975C7.49747 13.7334 8.24362 13.9082 9 13.9082C9.75638 13.9082 10.5025 13.7334 11.1802 13.3975C11.8579 13.0616 12.4488 12.5736 12.9068 11.9716C13.044 11.8035 13.1087 11.5877 13.0867 11.3718C13.0648 11.1559 12.958 10.9576 12.7898 10.8205C12.6216 10.6833 12.4059 10.6186 12.19 10.6405C11.9741 10.6625 11.7758 10.7693 11.6386 10.9375ZM18 9C18 10.78 17.4722 12.5201 16.4832 14.0001C15.4943 15.4802 14.0887 16.6337 12.4442 17.3149C10.7996 17.9961 8.99002 18.1743 7.24419 17.8271C5.49836 17.4798 3.89472 16.6226 2.63604 15.364C1.37737 14.1053 0.520203 12.5016 0.172936 10.7558C-0.17433 9.00998 0.00389959 7.20038 0.685088 5.55585C1.36628 3.91131 2.51983 2.50571 3.99987 1.51677C5.47991 0.527841 7.21997 0 9 0C11.3861 0.00281493 13.6736 0.95193 15.3609 2.63915C17.0481 4.32636 17.9972 6.61391 18 9ZM16.3636 9C16.3636 7.54361 15.9318 6.11993 15.1226 4.90898C14.3135 3.69804 13.1635 2.75422 11.8179 2.19689C10.4724 1.63955 8.99183 1.49373 7.56343 1.77785C6.13502 2.06198 4.82295 2.7633 3.79313 3.79312C2.7633 4.82295 2.06199 6.13502 1.77786 7.56343C1.49373 8.99183 1.63955 10.4724 2.19689 11.8179C2.75423 13.1635 3.69804 14.3135 4.90899 15.1226C6.11993 15.9318 7.54361 16.3636 9 16.3636C10.9523 16.3615 12.824 15.585 14.2045 14.2045C15.585 12.824 16.3615 10.9523 16.3636 9Z" fill="#FF5A5A"/>
</svg>
