<svg width="19" height="16" viewBox="0 0 19 16" fill="none" xmlns="http://www.w3.org/2000/svg">
<path d="M4.55 8.00005H0.95C0.830653 8.00005 0.716193 8.04746 0.631802 8.13185C0.547411 8.21624 0.5 8.3307 0.5 8.45005V15.2H5V8.45005C5 8.3307 4.95259 8.21624 4.8682 8.13185C4.78381 8.04746 4.66935 8.00005 4.55 8.00005Z" fill="#FF5A5A"/>
<path d="M11.3 0.800049H7.7C7.58065 0.800049 7.46619 0.847459 7.3818 0.931851C7.29741 1.01624 7.25 1.1307 7.25 1.25005V15.2H11.75V1.25005C11.75 1.1307 11.7026 1.01624 11.6182 0.931851C11.5338 0.847459 11.4193 0.800049 11.3 0.800049Z" fill="#FF5A5A"/>
<path d="M18.05 4.40005H14.45C14.3307 4.40005 14.2162 4.44746 14.1318 4.53185C14.0474 4.61624 14 4.7307 14 4.85005V15.2H18.5V4.85005C18.5 4.7307 18.4526 4.61624 18.3682 4.53185C18.2838 4.44746 18.1693 4.40005 18.05 4.40005Z" fill="#FF5A5A"/>
</svg>
