<svg width="19" height="18" viewBox="0 0 19 18" fill="none" xmlns="http://www.w3.org/2000/svg">
<path d="M5.89824 9.24391C5.37305 8.58074 5.05381 7.77935 4.9797 6.93811C4.97345 6.59098 5.03993 6.24636 5.17488 5.92622C5.30984 5.60608 5.51031 5.31745 5.76353 5.07871C5.83843 4.99369 5.93019 4.92502 6.03303 4.87701C6.13587 4.82899 6.24758 4.80268 6.36113 4.79971C6.5103 4.79971 6.65947 4.79971 6.79057 4.80781C6.92166 4.81591 7.11242 4.75561 7.29414 5.19031C7.47586 5.62501 7.92699 6.73381 7.98485 6.84541C8.02034 6.90368 8.04059 6.96989 8.04375 7.03797C8.04691 7.10604 8.03288 7.17382 8.00293 7.23511C7.94672 7.36927 7.87152 7.49474 7.77962 7.60771C7.66752 7.73731 7.54366 7.89841 7.44331 7.99741C7.34296 8.09641 7.21458 8.22961 7.34476 8.45281C7.68294 9.02603 8.1046 9.54618 8.59601 9.99631C9.12734 10.4662 9.73673 10.8405 10.3969 11.1024C10.6211 11.214 10.7522 11.1924 10.8824 11.0466C11.0126 10.9008 11.442 10.3959 11.5912 10.1727C11.7404 9.94951 11.8905 9.98731 12.0957 10.0611C12.3009 10.1349 13.4021 10.6749 13.6254 10.7865C13.8487 10.8981 13.9988 10.9539 14.0548 11.0466C14.1162 11.4051 14.0709 11.7736 13.9246 12.1068C13.7596 12.3775 13.5401 12.6114 13.28 12.7937C13.0199 12.976 12.7247 13.1028 12.413 13.1661C11.942 13.2461 11.4587 13.2152 11.0018 13.0761C10.5683 12.9422 10.1421 12.7857 9.7252 12.6072C8.17832 11.8352 6.85955 10.6762 5.89824 9.24391ZM0.5 18L1.77113 13.3776C0.786171 11.6761 0.392609 9.69863 0.651465 7.7518C0.91032 5.80497 1.80713 3.99753 3.20286 2.60971C4.59858 1.2219 6.41525 0.331231 8.3712 0.0758065C10.3272 -0.179618 12.3131 0.214468 14.0212 1.19697C15.7293 2.17946 17.064 3.69548 17.8185 5.50998C18.573 7.32448 18.7051 9.33609 18.1943 11.2329C17.6835 13.1298 16.5584 14.8059 14.9933 16.0014C13.4283 17.1969 11.5108 17.845 9.53805 17.8452C8.04038 17.8455 6.56648 17.4723 5.25092 16.7598L0.5 18ZM2.08665 8.91901C2.08443 10.3148 2.47905 11.6827 3.22489 12.8646L3.4057 13.1454L2.65351 15.8814L5.47333 15.1452L5.74455 15.3054C6.89242 15.9823 8.20212 16.3391 9.53625 16.3386C11.0095 16.3386 12.4496 15.9038 13.6746 15.089C14.8996 14.2743 15.8545 13.1163 16.4184 11.7614C16.9824 10.4065 17.1301 8.9156 16.843 7.47714C16.5558 6.03868 15.8467 4.71727 14.8052 3.67998C13.7637 2.64269 12.4366 1.9361 10.9918 1.64955C9.54696 1.36299 8.04921 1.50934 6.68792 2.07009C5.32662 2.63083 4.1629 3.5808 3.34389 4.79988C2.52489 6.01896 2.08737 7.45241 2.08665 8.91901Z" fill="#003E52"/>
</svg>
