<svg width="13" height="14" viewBox="0 0 13 14" fill="none" xmlns="http://www.w3.org/2000/svg">
<path d="M2.60039 13.5H10.4004C10.9176 13.5 11.4136 13.2946 11.7793 12.9289C12.1449 12.5632 12.3504 12.0672 12.3504 11.55V3.75C12.3504 3.40522 12.2134 3.07456 11.9696 2.83076C11.7258 2.58696 11.3952 2.45 11.0504 2.45H9.75039V1.15C9.75039 0.977609 9.68191 0.812279 9.56001 0.690381C9.43811 0.568482 9.27278 0.5 9.10039 0.5C8.928 0.5 8.76267 0.568482 8.64077 0.690381C8.51887 0.812279 8.45039 0.977609 8.45039 1.15V2.45H4.55039V1.15C4.55039 0.977609 4.48191 0.812279 4.36001 0.690381C4.23811 0.568482 4.07278 0.5 3.90039 0.5C3.728 0.5 3.56267 0.568482 3.44077 0.690381C3.31887 0.812279 3.25039 0.977609 3.25039 1.15V2.45H1.95039C1.60561 2.45 1.27495 2.58696 1.03115 2.83076C0.787354 3.07456 0.650391 3.40522 0.650391 3.75V11.55C0.650391 12.0672 0.855837 12.5632 1.22153 12.9289C1.58723 13.2946 2.08322 13.5 2.60039 13.5ZM1.95039 7.325C1.95039 7.2388 1.98463 7.15614 2.04558 7.09519C2.10653 7.03424 2.1892 7 2.27539 7H10.7254C10.8116 7 10.8943 7.03424 10.9552 7.09519C11.0162 7.15614 11.0504 7.2388 11.0504 7.325V11.55C11.0504 11.7224 10.9819 11.8877 10.86 12.0096C10.7381 12.1315 10.5728 12.2 10.4004 12.2H2.60039C2.428 12.2 2.26267 12.1315 2.14077 12.0096C2.01887 11.8877 1.95039 11.7224 1.95039 11.55V7.325Z" fill="#10BAC4"/>
</svg>
