<svg width="17" height="12" viewBox="0 0 17 12" fill="none" xmlns="http://www.w3.org/2000/svg">
<path d="M0.780273 7.00181C0.780273 5.38488 2.08106 4.13242 3.68772 4.13242C4.04938 1.7686 6.10231 0 8.50011 0C10.8979 0 12.9506 1.76899 13.3125 4.13242C14.9194 4.13242 16.22 5.3842 16.22 7.00181C16.22 8.57954 14.9459 9.86159 13.3684 9.8711V11.2722C13.368 11.4651 13.2912 11.65 13.1548 11.7864C13.0184 11.9228 12.8335 11.9996 12.6406 12H9.74646C8.78744 12 8.78744 10.5444 9.74646 10.5444H11.9128L11.9128 4.86826C11.9128 2.99311 10.3753 1.45556 8.50011 1.45556C6.62495 1.45556 5.08768 2.99292 5.08768 4.86826L5.08768 9.62861C5.08768 10.4871 3.89907 10.5904 3.66831 9.8712C2.07282 9.8712 0.780273 8.60215 0.780273 7.00181Z" fill="#10BAC4"/>
</svg>
