<svg width="15" height="16" viewBox="0 0 15 16" fill="none" xmlns="http://www.w3.org/2000/svg">
<path d="M11.8632 0H3.13592C2.55727 0 2.00231 0.22981 1.59314 0.638874C1.18397 1.04794 0.954102 1.60275 0.954102 2.18125V15.2688C0.954102 15.4214 1.00213 15.5701 1.09138 15.6939C1.18063 15.8177 1.30658 15.9103 1.45139 15.9585C1.5962 16.0068 1.75252 16.0083 1.89822 15.9628C2.04392 15.9173 2.17161 15.8271 2.26319 15.705L3.73883 13.7419L4.66683 15.5974C4.72195 15.7078 4.80428 15.8024 4.90607 15.8723C5.00786 15.9421 5.12575 15.9849 5.24865 15.9966C5.37254 16.0088 5.49747 15.9883 5.61102 15.9373C5.72457 15.8863 5.82279 15.8065 5.89592 15.7057L7.49956 13.5725L9.09956 15.705C9.17279 15.8056 9.27102 15.8854 9.38455 15.9364C9.49807 15.9874 9.62295 16.0079 9.74683 15.9958C9.86972 15.9841 9.98762 15.9414 10.0894 15.8715C10.1912 15.8017 10.2735 15.7071 10.3286 15.5967L11.2603 13.7419L12.7359 15.705C12.8037 15.7953 12.8915 15.8686 12.9925 15.9191C13.0935 15.9696 13.2048 15.9958 13.3177 15.9958C13.5106 15.9958 13.6956 15.9192 13.832 15.7829C13.9684 15.6465 14.045 15.4616 14.045 15.2688V2.18125C14.045 1.60275 13.8151 1.04794 13.406 0.638874C12.9968 0.22981 12.4418 0 11.8632 0ZM12.5905 13.0875L11.7177 11.9242C11.6445 11.8236 11.5463 11.7438 11.4327 11.6928C11.3192 11.6418 11.1943 11.6213 11.0705 11.6333C10.9476 11.645 10.8297 11.6878 10.7279 11.7577C10.6261 11.8275 10.5438 11.9221 10.4886 12.0325L9.56065 13.888L8.08137 11.9242C8.01363 11.8339 7.92579 11.7606 7.8248 11.7101C7.72382 11.6596 7.61246 11.6333 7.49956 11.6333C7.38665 11.6333 7.2753 11.6596 7.17431 11.7101C7.07332 11.7606 6.98548 11.8339 6.91774 11.9242L5.4421 13.8909L4.51774 12.0354C4.46236 11.9235 4.37906 11.8276 4.27588 11.7572C4.1727 11.6868 4.05311 11.6441 3.92865 11.6333C3.8048 11.6216 3.68002 11.6422 3.56655 11.6932C3.45308 11.7442 3.35481 11.8238 3.28137 11.9242L2.40865 13.0875V2.18125C2.40865 1.98842 2.48527 1.80348 2.62166 1.66713C2.75805 1.53077 2.94303 1.45417 3.13592 1.45417H11.8632C12.0561 1.45417 12.2411 1.53077 12.3775 1.66713C12.5138 1.80348 12.5905 1.98842 12.5905 2.18125V13.0875ZM11.1359 5.81667C11.1359 6.0095 11.0593 6.19444 10.9229 6.3308C10.7865 6.46715 10.6015 6.54375 10.4086 6.54375H4.59047C4.39758 6.54375 4.2126 6.46715 4.07621 6.3308C3.93982 6.19444 3.86319 6.0095 3.86319 5.81667C3.86319 5.62384 3.93982 5.4389 4.07621 5.30254C4.2126 5.16619 4.39758 5.08959 4.59047 5.08959H10.4086C10.6015 5.08959 10.7865 5.16619 10.9229 5.30254C11.0593 5.4389 11.1359 5.62384 11.1359 5.81667ZM8.22683 8.725C8.22683 8.91784 8.15021 9.10278 8.01381 9.23913C7.87743 9.37548 7.69244 9.45209 7.49956 9.45209H4.59047C4.39758 9.45209 4.2126 9.37548 4.07621 9.23913C3.93982 9.10278 3.86319 8.91784 3.86319 8.725C3.86319 8.53217 3.93982 8.34723 4.07621 8.21088C4.2126 8.07452 4.39758 7.99792 4.59047 7.99792H7.49956C7.69244 7.99792 7.87743 8.07452 8.01381 8.21088C8.15021 8.34723 8.22683 8.53217 8.22683 8.725Z" fill="#FF5A5A"/>
</svg>
