<svg width="12" height="12" viewBox="0 0 12 12" fill="none" xmlns="http://www.w3.org/2000/svg">
<path d="M10.2 6H12V10.8C12 11.1183 11.8736 11.4235 11.6485 11.6485C11.4235 11.8736 11.1183 12 10.8 12H10.2V6ZM9 1.2V12H1.2C0.88174 12 0.576515 11.8736 0.351472 11.6485C0.126428 11.4235 0 11.1183 0 10.8V1.2C0 0.88174 0.126428 0.576515 0.351472 0.351472C0.576515 0.126428 0.88174 0 1.2 0H7.8C8.11826 0 8.42348 0.126428 8.64853 0.351472C8.87357 0.576515 9 0.88174 9 1.2ZM4.8 8.4H1.8V9.6H4.8V8.4ZM7.2 5.4H1.8V6.6H7.2V5.4ZM7.2 2.4H1.8V3.6H7.2V2.4Z" fill="#10BAC4"/>
</svg>
