<svg width="15" height="16" viewBox="0 0 15 16" fill="none" xmlns="http://www.w3.org/2000/svg">
<path d="M7.5 0.5C6.01664 0.5 4.56659 0.939867 3.33323 1.76398C2.09986 2.58809 1.13856 3.75943 0.570907 5.12987C0.00324961 6.50032 -0.145275 8.00832 0.144114 9.46317C0.433503 10.918 1.14781 12.2544 2.1967 13.3033C3.2456 14.3522 4.58197 15.0665 6.03682 15.3559C7.49168 15.6453 8.99968 15.4967 10.3701 14.9291C11.7406 14.3614 12.9119 13.4001 13.736 12.1668C14.5601 10.9334 15 9.48336 15 8C15 7.01508 14.806 6.03981 14.4291 5.12987C14.0522 4.21993 13.4997 3.39314 12.8033 2.6967C12.1069 2.00026 11.2801 1.44781 10.3701 1.0709C9.46019 0.693993 8.48492 0.5 7.5 0.5ZM11.757 6.67775L7.257 10.8027C7.11453 10.9334 6.92711 11.004 6.73386 10.9998C6.5406 10.9956 6.35643 10.9169 6.21975 10.7802L3.96975 8.53025C3.89812 8.46106 3.84098 8.3783 3.80168 8.2868C3.76237 8.1953 3.74168 8.09688 3.74081 7.9973C3.73995 7.89771 3.75892 7.79895 3.79664 7.70678C3.83435 7.61461 3.89004 7.53087 3.96046 7.46045C4.03088 7.39003 4.11461 7.33434 4.20679 7.29663C4.29896 7.25892 4.39772 7.23994 4.4973 7.24081C4.59689 7.24168 4.6953 7.26236 4.78681 7.30167C4.87831 7.34098 4.96107 7.39812 5.03025 7.46975L6.7725 9.212L10.743 5.57225C10.8896 5.43778 11.0836 5.36706 11.2824 5.37564C11.4811 5.38422 11.6683 5.4714 11.8027 5.618C11.9372 5.7646 12.0079 5.95861 11.9994 6.15735C11.9908 6.35609 11.9036 6.54328 11.757 6.67775Z" fill="#10BAC4"/>
</svg>
