<svg width="14" height="12" viewBox="0 0 14 12" fill="none" xmlns="http://www.w3.org/2000/svg">
<path d="M5.00016 10.3333C5.00016 10.663 4.90241 10.9852 4.71928 11.2593C4.53614 11.5334 4.27585 11.747 3.9713 11.8731C3.66676 11.9993 3.33165 12.0323 3.00835 11.968C2.68504 11.9037 2.38807 11.7449 2.15498 11.5118C1.9219 11.2788 1.76316 10.9818 1.69885 10.6585C1.63455 10.3352 1.66755 10.0001 1.7937 9.69553C1.91984 9.39098 2.13346 9.13068 2.40755 8.94755C2.68163 8.76441 3.00386 8.66667 3.3335 8.66667C3.77552 8.66667 4.19945 8.84226 4.51201 9.15482C4.82457 9.46738 5.00016 9.8913 5.00016 10.3333ZM10.6668 8.66667C10.3372 8.66667 10.015 8.76441 9.74088 8.94755C9.4668 9.13068 9.25318 9.39098 9.12703 9.69553C9.00088 10.0001 8.96788 10.3352 9.03219 10.6585C9.0965 10.9818 9.25523 11.2788 9.48832 11.5118C9.72141 11.7449 10.0184 11.9037 10.3417 11.968C10.665 12.0323 11.0001 11.9993 11.3046 11.8731C11.6092 11.747 11.8695 11.5334 12.0526 11.2593C12.2357 10.9852 12.3335 10.663 12.3335 10.3333C12.3335 9.8913 12.1579 9.46738 11.8453 9.15482C11.5328 8.84226 11.1089 8.66667 10.6668 8.66667ZM7.00016 0H1.00016C0.823352 0 0.653782 0.0702379 0.528758 0.195262C0.403734 0.320286 0.333496 0.489856 0.333496 0.666667V3.33333H7.66683V0.666667C7.66683 0.489856 7.59659 0.320286 7.47157 0.195262C7.34654 0.0702379 7.17697 0 7.00016 0ZM0.333496 8.66667C0.334336 8.76209 0.355942 8.85618 0.396811 8.94241C0.437681 9.02864 0.496835 9.10493 0.570163 9.166C0.80412 8.60881 1.20139 8.13557 1.70963 7.80863C2.21786 7.48168 2.81322 7.31638 3.41727 7.3345C4.02131 7.35261 4.6057 7.5533 5.09343 7.91011C5.58116 8.26692 5.94935 8.76312 6.1495 9.33333H7.66683V4.66667H0.333496V8.66667ZM9.00016 2V7.84133C9.36716 7.59513 9.78408 7.43317 10.221 7.36706C10.658 7.30094 11.1042 7.33231 11.5276 7.45892C11.951 7.58553 12.3411 7.80423 12.6701 8.09937C12.999 8.3945 13.2586 8.75875 13.4302 9.166C13.5035 9.10493 13.5626 9.02864 13.6035 8.94241C13.6444 8.85618 13.666 8.76209 13.6668 8.66667V4.66667L11.6668 2H9.00016Z" fill="#10BAC4"/>
</svg>
